<?xml version="1.0" encoding="utf-8"?>
<!-- Generator: Adobe Illustrator 16.0.0, SVG Export Plug-In . SVG Version: 6.00 Build 0)  -->
<!DOCTYPE svg PUBLIC "-//W3C//DTD SVG 1.1//EN" "http://www.w3.org/Graphics/SVG/1.1/DTD/svg11.dtd">
<svg version="1.1" id="Layer_1" xmlns="http://www.w3.org/2000/svg" xmlns:xlink="http://www.w3.org/1999/xlink" x="0px" y="0px"
	 width="42px" height="56px" viewBox="0 0 42 56" enable-background="new 0 0 42 56" xml:space="preserve">
<g>
	<path fill="#FFFFFF" d="M27,1v12H15V1H27 M28,0H14v14h14V0L28,0z"/>
</g>
<g>
	<path fill="#FFFFFF" d="M41,1v12H29V1H41 M42,0H28v14h14V0L42,0z"/>
</g>
<g>
	<path fill="#FFFFFF" d="M13,1v12H1V1H13 M14,0H0v14h14V0L14,0z"/>
</g>
<g>
	<path fill="#FFFFFF" d="M27,15v12H15V15H27 M28,14H14v14h14V14L28,14z"/>
</g>
<g>
	<path fill="#FFFFFF" d="M41,15v12H29V15H41 M42,14H28v14h14V14L42,14z"/>
</g>
<g>
	<path fill="#FFFFFF" d="M13,15v12H1V15H13 M14,14H0v14h14V14L14,14z"/>
</g>
<g>
	<path fill="#FFFFFF" d="M27,29v12H15V29H27 M28,28H14v14h14V28L28,28z"/>
</g>
<g>
	<path fill="#FFFFFF" d="M41,29v12H29V29H41 M42,28H28v14h14V28L42,28z"/>
</g>
<g>
	<path fill="#FFFFFF" d="M13,29v12H1V29H13 M14,28H0v14h14V28L14,28z"/>
</g>
<g>
	<path fill="#FFFFFF" d="M27,43v12H15V43H27 M28,42H14v14h14V42L28,42z"/>
</g>
<g>
	<path fill="#FFFFFF" d="M41,43v12H29V43H41 M42,42H28v14h14V42L42,42z"/>
</g>
<g>
	<path fill="#FFFFFF" d="M13,43v12H1V43H13 M14,42H0v14h14V42L14,42z"/>
</g>
</svg>
