<?xml version="1.0" encoding="utf-8"?>
<!-- Generator: Adobe Illustrator 16.0.0, SVG Export Plug-In . SVG Version: 6.00 Build 0)  -->
<!DOCTYPE svg PUBLIC "-//W3C//DTD SVG 1.1//EN" "http://www.w3.org/Graphics/SVG/1.1/DTD/svg11.dtd">

<svg version="1.1" id="Layer_1" xmlns="http://www.w3.org/2000/svg" xmlns:xlink="http://www.w3.org/1999/xlink" x="0px" y="0px"
	 width="508px" height="479px" viewBox="0 0 508 479" enable-background="new 0 0 508 479" xml:space="preserve">



<style>

@keyframes yellowCircle{
	from{transform:rotate(0deg);transform-origin: center center;}
	to{transform:rotate(360deg);transform-origin: center center;}
}

@keyframes wings{
0%{opacity : 0.2}
	50%{opacity : 0.4}
	100%{opacity : 0.2}
}

	.outerBorder {
	background-color : grey;
	opacity: 1;
	}
	.chloro {
	background-color : grey;
	opacity: 1;
	}
	.tech {
	background-color : grey;
	opacity: 1;
	}



	.circleBig {
	background-color : grey;
	opacity: 1;
	}


	.circleYellow {
	background-color : grey;
	opacity: 0.5;
	animation-name: yellowCircle;
	animation-duration:10s;
	animation-iteration-count : infinite;
	animation-timing-function : linear;
	}


	.o4 {
	background-color : grey;
	opacity: 1;
	}


	.yellowBg{

	animation-name: wings;
	animation-duration:4s;
	animation-iteration-count : infinite;
	animation-timing-function : linear;
	}

	.wings {
	opacity: 0.5;
	animation-name: wings;
	animation-duration:2.5s;
	animation-iteration-count : infinite;
	animation-timing-function : linear;
	}

</style>

<g class = "yellowBg">
	<polygon fill="#FFF200" points="48,119.195 253.999,-0.501 460,119.195 460,358.588 253.999,478.284 48,358.588 	"/>
</g>
<g>
	<g class = "outerBorder">
		<path fill="#7AF70D" d="M253.999,27.262L436,133.002v211.779l-182.001,105.74L72,344.781V133.002L253.999,27.262 M253.999-0.501
			L48,119.195v239.393l205.999,119.696L460,358.588V119.195L253.999-0.501L253.999-0.501z"/>
	</g>
	<g  class = "circleBig">
		<g class = "circleYellow">
			<path fill="#EEF40B" d="M253,120c0,0,0.335,0,0.314,0c-0.004,0-0.007,0-0.011,0c-0.02,0-0.04,0-0.06,0c-0.003,0-0.011,0-0.014,0
				c-0.02,0-0.04,0-0.06,0c-0.003,0-0.006,0-0.01,0c-0.019,0-0.039,0-0.058,0c-0.003,0-0.005,0-0.009,0c-0.02,0-0.041,0-0.061,0
				c-0.003,0-0.01,0-0.014,0c-0.02,0-0.04,0-0.059,0c-0.003,0-0.011,0-0.014,0c-0.02,0-0.04,0-0.061,0c-0.003,0-0.004,0-0.008,0
				c-0.018,0-0.036,0-0.055,0c-0.007,0-0.008,0-0.015,0c-0.02,0-0.039,0-0.059,0c-0.007,0-0.007,0-0.014,0c-0.02,0-0.039,0-0.059,0
				c-0.007,0-0.008,0-0.015,0c-0.018,0-0.036,0-0.054,0c-0.003,0-0.005,0-0.009,0c-0.02,0-0.039,0-0.059,0c-0.003,0-0.014,0-0.018,0
				c-0.018,0-0.036,0-0.055,0c-0.007,0-0.013,0-0.02,0c-0.018,0-0.035,0-0.052,0c-0.007,0-0.015,0-0.021,0c-0.014,0-0.028,0-0.042,0
				c-0.007,0-0.014,0-0.021,0c-0.017,0-0.033,0-0.05,0c-0.007,0-0.019,0-0.026,0c-0.016,0-0.032,0-0.048,0c-0.01,0-0.017,0-0.027,0
				c-0.012,0-0.024,0-0.036,0c-0.014,0-0.02,0-0.034,0c-0.013,0-0.026,0-0.039,0c-0.01,0-0.015,0-0.025,0c-0.016,0-0.031,0-0.046,0
				c-0.01,0-0.021,0-0.031,0c-0.011,0-0.022,0-0.033,0c-0.014,0-0.029,0-0.043,0c-0.008,0-0.017,0-0.025,0c-0.017,0-0.035,0-0.052,0
				c-0.008,0-0.015,0-0.022,0c-0.01,0-0.024,0-0.035,0c-0.004,0-0.008,0-0.012,0c-0.024,0-0.043,0-0.067,0c-0.004,0-0.008,0-0.012,0
				c-0.021,0-0.045,0-0.065,0c-0.004,0-0.009,0-0.014,0c-0.038,0-0.568-0.127-0.568-0.126v0.063c0,0,0.398,0.064,0.371,0.064
				c-0.001,0-0.003,0-0.005,0c-2.341,0-4.664,0.021-6.98,0.196l0.489,8.912c2.754-0.208,6.125-0.377,8.125-0.377V120L253,120z
				 M235.445,121.112c-1.663,0.253-3.313,0.888-4.957,0.888c-0.001,0-0.003,0-0.004,0c-0.026,0-0.049,0-0.076,0c0,0-0.001,0-0.001,0
				c-0.04,0-0.078,0-0.117,0c0,0-0.001,0-0.002,0c-0.023,0-0.049,0-0.072,0c-0.003,0-0.007,0-0.011,0
				c-0.02,0-0.045,0.01-0.065,0.014c-0.004,0.001-0.007,0.002-0.011,0.003c-0.04,0.008-0.073,0.015-0.112,0.023
				c-0.004,0-0.008,0.001-0.012,0.002c-0.02,0.004-0.044,0.01-0.064,0.014c-0.004,0-0.008,0.001-0.012,0.002
				c-0.02,0.004-0.043,0.008-0.063,0.012c-0.005,0.001-0.009,0.002-0.014,0.003c-0.039,0.008-0.071,0.014-0.11,0.022
				c-0.006,0.001-0.013,0.002-0.019,0.003c-0.016,0.003-0.037,0.008-0.053,0.011c-0.007,0.001-0.014,0.002-0.021,0.004
				c-0.017,0.003-0.037,0.008-0.053,0.011c-0.007,0.001-0.014,0.003-0.021,0.004c-0.01,0.002-0.022,0.004-0.032,0.007
				c-0.014,0.002-0.028,0.005-0.042,0.008c-0.01,0.002-0.022,0.004-0.032,0.007c-0.008,0.001-0.016,0.003-0.023,0.004
				c-0.017,0.003-0.035,0.007-0.051,0.011c-0.007,0.001-0.014,0.002-0.021,0.004c-0.02,0.004-0.034,0.007-0.054,0.011
				c-0.007,0.001-0.014,0.003-0.021,0.004c-0.01,0.002-0.022,0.004-0.032,0.006c-0.014,0.003-0.028,0.006-0.042,0.009
				c-0.01,0.002-0.021,0.004-0.031,0.006s-0.02,0.004-0.03,0.006c-0.017,0.003-0.026,0.005-0.042,0.009
				c-0.009,0.002-0.018,0.003-0.027,0.005c-0.017,0.003-0.029,0.006-0.046,0.01c-0.009,0.001-0.018,0.003-0.026,0.005
				c-0.01,0.002-0.021,0.004-0.03,0.006c-0.015,0.003-0.029,0.006-0.043,0.009c-0.01,0.002-0.02,0.004-0.029,0.006
				c-0.011,0.002-0.021,0.004-0.033,0.007c-0.013,0.002-0.028,0.006-0.041,0.008c-0.009,0.002-0.019,0.004-0.027,0.006
				c-0.017,0.003-0.026,0.005-0.042,0.009c-0.011,0.002-0.021,0.004-0.031,0.007c-0.01,0.002-0.019,0.004-0.028,0.006
				c-0.015,0.003-0.029,0.006-0.044,0.009c-0.01,0.002-0.019,0.004-0.029,0.006c-0.014,0.002-0.027,0.005-0.041,0.008
				c-0.01,0.002-0.02,0.004-0.03,0.006c-0.011,0.002-0.022,0.005-0.033,0.007c-0.01,0.002-0.025,0.005-0.035,0.008
				c-0.012,0.002-0.025,0.005-0.038,0.008c-0.01,0.002-0.014,0.003-0.024,0.005c-0.016,0.004-0.032,0.007-0.048,0.011
				c-0.006,0.001-0.017,0.003-0.024,0.005c-0.015,0.003-0.031,0.007-0.046,0.01c-0.007,0.001-0.018,0.003-0.024,0.005
				c-0.013,0.003-0.025,0.005-0.038,0.008c-0.01,0.002-0.019,0.004-0.029,0.006c-0.014,0.003-0.028,0.006-0.042,0.009
				c-0.01,0.002-0.013,0.003-0.022,0.005c-0.017,0.003-0.033,0.007-0.049,0.011c-0.006,0.001-0.016,0.003-0.023,0.005
				c-0.017,0.004-0.034,0.007-0.05,0.011c-0.006,0.001-0.011,0.002-0.018,0.004c-0.015,0.003-0.029,0.006-0.043,0.009
				c-0.01,0.002-0.012,0.002-0.021,0.005c-0.016,0.003-0.031,0.007-0.047,0.01c-0.01,0.002-0.011,0.002-0.021,0.004
				c-0.017,0.003-0.034,0.007-0.05,0.011c-0.006,0.001-0.015,0.003-0.021,0.005c-0.017,0.004-0.034,0.008-0.051,0.011
				c-0.006,0.001-0.012,0.002-0.018,0.004c-0.015,0.003-0.029,0.007-0.044,0.01c-0.006,0.001-0.013,0.003-0.02,0.004
				c-0.017,0.004-0.034,0.007-0.051,0.011c-0.003,0.001-0.013,0.003-0.017,0.004c-0.018,0.004-0.036,0.008-0.054,0.012
				c-0.006,0.001-0.011,0.002-0.018,0.004c-0.019,0.004-0.037,0.008-0.055,0.012c-0.007,0.001-0.007,0.001-0.014,0.003
				c-0.017,0.004-0.033,0.007-0.05,0.011c-0.003,0-0.01,0.002-0.013,0.003c-0.019,0.004-0.038,0.008-0.056,0.013
				c-0.003,0-0.01,0.002-0.014,0.003c-0.019,0.004-0.037,0.008-0.056,0.012c-0.006,0.001-0.01,0.002-0.017,0.004
				c-0.018,0.004-0.037,0.008-0.055,0.012c-0.006,0.001-0.007,0.001-0.013,0.003c-0.017,0.004-0.033,0.008-0.049,0.011
				c-0.003,0.001-0.013,0.003-0.016,0.003c-0.018,0.004-0.036,0.008-0.054,0.012c-0.003,0.001-0.011,0.002-0.014,0.003
				c-0.019,0.004-0.038,0.008-0.057,0.013c-0.003,0.001-0.009,0.002-0.013,0.003c-0.02,0.004-0.039,0.009-0.059,0.014
				c-0.003,0-0.005,0.001-0.009,0.002c-0.019,0.004-0.038,0.008-0.058,0.013c-0.003,0.001-0.003,0.001-0.006,0.001
				c-0.02,0.005-0.039,0.009-0.059,0.014c-0.003,0-0.009,0.002-0.013,0.003c-0.019,0.004-0.038,0.009-0.057,0.013
				c-0.003,0.001-0.011,0.002-0.014,0.003c-0.02,0.004-0.039,0.009-0.059,0.013c-0.003,0.001-0.005,0.115-0.009,0.116
				c-0.019,0.005-0.038,0.127-0.058,0.127c-0.003,0-0.001,0-0.004,0l2.02,8.657c2.692-0.62,5.442-1.188,8.171-1.604L235.445,121.112
				L235.445,121.112z M217.921,125.122c-2.872,0.893-5.7,1.892-8.486,2.993l3.31,8.37c2.571-1.017,5.212-1.948,7.85-2.769
				L217.921,125.122L217.921,125.122z M201.197,131.635c-0.316,0.153-0.632,0.365-0.947,0.365h-0.001
				c-0.021,0-0.041,0.119-0.061,0.129c-0.003,0.002-0.001,0.05-0.004,0.052c-0.061,0.03-0.123,0.086-0.184,0.116
				c-0.003,0.001-0.002,0.014-0.005,0.015c-0.019,0.01-0.038,0.025-0.057,0.034c-0.003,0.001-0.006,0.006-0.009,0.008
				c-0.019,0.009-0.038,0.02-0.056,0.029l-0.005,0.003c-0.039,0.02-0.078,0.04-0.117,0.059c-0.003,0.001-0.006,0.003-0.009,0.005
				c-0.018,0.009-0.035,0.018-0.053,0.027c-0.006,0.003-0.007,0.003-0.013,0.006c-0.017,0.008-0.034,0.017-0.051,0.026
				c-0.003,0.001-0.01,0.005-0.013,0.006c-0.018,0.009-0.036,0.018-0.054,0.027c-0.003,0.001-0.003,0.002-0.006,0.003
				c-0.017,0.008-0.034,0.017-0.051,0.026c-0.003,0.001-0.007,0.003-0.01,0.005c-0.017,0.008-0.034,0.017-0.051,0.025
				c-0.003,0.001-0.012,0.006-0.015,0.008c-0.017,0.008-0.033,0.017-0.049,0.024c-0.006,0.003-0.011,0.006-0.017,0.009
				c-0.016,0.008-0.032,0.016-0.048,0.024c-0.006,0.003-0.01,0.005-0.016,0.008c-0.014,0.007-0.028,0.015-0.042,0.021
				c-0.006,0.003-0.016,0.008-0.021,0.011c-0.013,0.006-0.025,0.013-0.038,0.019c-0.006,0.003-0.015,0.007-0.021,0.01
				c-0.015,0.008-0.03,0.016-0.045,0.023c-0.006,0.003-0.014,0.007-0.02,0.01c-0.015,0.008-0.03,0.015-0.044,0.023
				c-0.009,0.004-0.012,0.006-0.021,0.01c-0.015,0.007-0.029,0.015-0.044,0.022c-0.006,0.003-0.013,0.007-0.02,0.01
				c-0.011,0.006-0.022,0.011-0.034,0.017c-0.009,0.005-0.022,0.011-0.031,0.016c-0.011,0.005-0.022,0.011-0.033,0.017
				c-0.009,0.004-0.015,0.008-0.024,0.012c-0.013,0.007-0.027,0.014-0.04,0.021c-0.009,0.005-0.018,0.01-0.027,0.014
				c-0.011,0.005-0.021,0.011-0.032,0.016c-0.012,0.006-0.021,0.011-0.033,0.017c-0.009,0.004-0.018,0.009-0.026,0.014
				c-0.012,0.006-0.028,0.015-0.04,0.021c-0.008,0.004-0.016,0.008-0.024,0.012c-0.015,0.007-0.025,0.013-0.04,0.021
				c-0.008,0.004-0.017,0.009-0.025,0.013c-0.012,0.006-0.019,0.01-0.03,0.016c-0.006,0.003-0.013,0.007-0.019,0.01
				c-0.015,0.008-0.033,0.017-0.047,0.024c-0.006,0.003-0.012,0.006-0.018,0.009c-0.018,0.009-0.032,0.017-0.05,0.026
				c-0.005,0.002-0.01,0.005-0.016,0.008c-0.018,0.009-0.037,0.019-0.054,0.028c-0.004,0.002-0.007,0.004-0.011,0.005
				c-0.058,0.03-0.113,0.059-0.171,0.089c-0.001,0-0.002,0.001-0.003,0.001c-0.023,0.012-0.045,0.023-0.068,0.036l0,0
				c-1.631,0.85-3.241,1.735-4.831,2.658l4.517,7.784c2.392-1.388,4.866-2.752,7.353-3.958L201.197,131.635L201.197,131.635z
				 M185.643,140.76c-0.753,0.516-1.501,1.04-2.243,1.572c-0.002,0.002-0.001,0.001-0.004,0.003
				c-0.018,0.012-0.035,0.025-0.052,0.038c-0.003,0.002-0.004,0.003-0.007,0.005c-0.017,0.012-0.034,0.024-0.051,0.037
				c-0.002,0.002-0.003,0.002-0.006,0.004c-0.015,0.011-0.031,0.022-0.046,0.034c-0.002,0.002-0.006,0.004-0.009,0.006
				c-0.015,0.011-0.03,0.022-0.045,0.033c-0.005,0.004-0.01,0.007-0.016,0.011c-0.014,0.01-0.027,0.02-0.041,0.03
				c-0.005,0.004-0.014,0.01-0.02,0.014c-0.013,0.01-0.027,0.02-0.04,0.029c-0.008,0.006-0.012,0.009-0.021,0.015
				c-0.009,0.007-0.019,0.014-0.028,0.021c-0.011,0.007-0.022,0.016-0.033,0.024c-0.008,0.005-0.015,0.011-0.022,0.016
				c-0.016,0.012-0.027,0.02-0.043,0.031c-0.005,0.004-0.01,0.007-0.015,0.011c-0.021,0.016-0.038,0.027-0.059,0.043
				c0,0-0.001,0.001-0.002,0.001c-0.011,0.008-0.02,0.014-0.03,0.022c-0.002,0.002-0.005,0.003-0.007,0.005
				c-0.019,0.014-0.037,0.027-0.056,0.041c-0.002,0.001-0.004,0.003-0.006,0.004c-1.469,1.071-2.909,2.17-4.33,3.307l5.623,7.028
				c2.159-1.727,4.41-3.395,6.692-4.957L185.643,140.76L185.643,140.76z M171.601,151.994c-0.384,0.357-0.762,0.713-1.141,1.076
				c-0.002,0.002-0.005,0.004-0.007,0.007c-0.015,0.014-0.033,0.031-0.048,0.045c-0.003,0.003-0.006,0.006-0.009,0.009
				c-0.015,0.014-0.029,0.027-0.043,0.041c-0.005,0.005-0.009,0.009-0.014,0.014c-0.007,0.007-0.018,0.018-0.025,0.024
				c-0.01,0.009-0.02,0.019-0.03,0.029c-0.007,0.007-0.014,0.013-0.021,0.02c-0.011,0.011-0.022,0.021-0.034,0.033
				c-0.007,0.007-0.01,0.01-0.018,0.017c-0.009,0.009-0.018,0.017-0.027,0.026s-0.014,0.014-0.024,0.023
				c-0.009,0.009-0.019,0.018-0.028,0.027c-0.004,0.004-0.011,0.011-0.016,0.016c-0.012,0.012-0.024,0.023-0.037,0.035
				c-0.005,0.005-0.011,0.011-0.016,0.016c-0.013,0.012-0.025,0.024-0.037,0.036c-0.005,0.005-0.01,0.009-0.015,0.014
				c-0.012,0.011-0.023,0.022-0.035,0.034c-0.007,0.007-0.009,0.008-0.016,0.015c-0.011,0.011-0.022,0.021-0.033,0.032
				c-0.005,0.004-0.007,0.006-0.011,0.011c-0.014,0.013-0.027,0.026-0.041,0.039c-0.002,0.002-0.01,0.01-0.012,0.012
				c-0.014,0.014-0.027,0.027-0.041,0.04c-0.002,0.002-0.007,0.007-0.01,0.009c-0.015,0.014-0.029,0.028-0.043,0.042
				c-0.002,0.002-0.003,0.003-0.005,0.005c-0.016,0.015-0.031,0.03-0.046,0.045l0,0c-0.016,0.015-0.031,0.03-0.047,0.045
				c-0.002,0.002-0.003,0.003-0.005,0.005c-0.015,0.015-0.031,0.03-0.046,0.044l-0.005,0.005c-0.016,0.015-0.031,0.03-0.046,0.045
				l-0.004,0.004c-0.05,0.048-0.099,0.096-0.148,0.145v0c-0.017,0.016-0.033,0.032-0.05,0.048c-0.002,0.002,0.001-0.001-0.001,0.001
				c-0.066,0.065-0.133,0.13-0.199,0.196l-0.001,0c-0.65,0.64-1.294,1.288-1.93,1.943c-0.002,0.002-0.001,0.001-0.003,0.003
				c-0.016,0.016-0.031,0.032-0.046,0.048c-0.002,0.002,0,0-0.002,0.002c-0.048,0.05-0.096,0.1-0.144,0.149l-0.002,0.001
				c-0.015,0.016-0.03,0.032-0.046,0.047c-0.002,0.002-0.003,0.003-0.005,0.005c-0.016,0.016-0.03,0.032-0.046,0.047l-0.001,0.001
				c-0.032,0.033-0.063,0.065-0.095,0.099l-0.003,0.003c-0.015,0.015-0.029,0.03-0.044,0.045c-0.002,0.002-0.005,0.006-0.007,0.008
				c-0.014,0.015-0.029,0.03-0.043,0.044c-0.002,0.002-0.003,0.003-0.006,0.006c-0.015,0.016-0.03,0.031-0.044,0.047
				c-0.002,0.002,0-0.001-0.002,0.001c-0.016,0.017-0.031,0.033-0.046,0.049l-0.001,0.001c-0.015,0.016-0.03,0.031-0.044,0.046
				c-0.002,0.002-0.005,0.005-0.007,0.007c-0.014,0.015-0.029,0.03-0.043,0.044c-0.002,0.002-0.004,0.005-0.007,0.007
				c-0.014,0.015-0.028,0.03-0.042,0.045c-0.002,0.002-0.005,0.005-0.007,0.007c-0.013,0.014-0.026,0.027-0.04,0.041
				c-0.002,0.002-0.004,0.004-0.006,0.006c-0.014,0.015-0.027,0.029-0.041,0.043c-0.002,0.002-0.007,0.008-0.01,0.01
				c-0.013,0.014-0.026,0.028-0.04,0.042c-0.005,0.005-0.006,0.006-0.011,0.011c-0.013,0.014-0.026,0.028-0.039,0.042
				c-0.002,0.002-0.008,0.008-0.011,0.011c-0.013,0.014-0.025,0.027-0.039,0.041c-0.002,0.002-0.006,0.006-0.008,0.009
				c-0.012,0.013-0.025,0.026-0.037,0.039c-0.004,0.005-0.004,0.004-0.009,0.009c-0.013,0.014-0.026,0.027-0.039,0.041
				c-0.004,0.005-0.008,0.008-0.012,0.013c-0.012,0.013-0.025,0.026-0.038,0.04c-0.004,0.005-0.008,0.008-0.013,0.013
				c-0.012,0.013-0.024,0.026-0.037,0.039c-0.004,0.005-0.009,0.01-0.014,0.014c-0.009,0.01-0.019,0.02-0.028,0.03
				c-0.007,0.007-0.013,0.014-0.02,0.021c-0.01,0.01-0.021,0.021-0.03,0.032c-0.007,0.007-0.009,0.009-0.016,0.016
				c-0.011,0.012-0.022,0.024-0.034,0.036c-0.004,0.005-0.013,0.013-0.017,0.018c-0.011,0.012-0.023,0.024-0.035,0.037
				c-0.004,0.005-0.01,0.011-0.014,0.016c-0.009,0.01-0.019,0.02-0.028,0.029c-0.009,0.009-0.012,0.013-0.021,0.023
				c-0.009,0.009-0.018,0.019-0.027,0.029c-0.005,0.005-0.011,0.011-0.015,0.016c-0.012,0.012-0.023,0.024-0.035,0.037
				c-0.004,0.005-0.012,0.013-0.017,0.018c-0.011,0.012-0.022,0.024-0.034,0.036c-0.007,0.007-0.01,0.011-0.017,0.018
				c-0.008,0.009-0.016,0.018-0.024,0.026c-0.009,0.01-0.019,0.021-0.028,0.03c-0.007,0.007-0.014,0.014-0.021,0.021
				c-0.009,0.01-0.018,0.019-0.026,0.028c-0.008,0.009-0.016,0.017-0.023,0.025c-0.007,0.007-0.014,0.015-0.021,0.022
				c-0.01,0.01-0.02,0.021-0.029,0.031c-0.007,0.007-0.015,0.016-0.021,0.023c-0.006,0.007-0.013,0.014-0.019,0.021
				c-0.011,0.012-0.021,0.023-0.033,0.035c-0.005,0.005-0.01,0.011-0.015,0.016c-0.011,0.012-0.023,0.025-0.035,0.037
				c-0.005,0.006-0.011,0.012-0.016,0.018c-0.009,0.01-0.02,0.021-0.028,0.03c-0.007,0.008-0.015,0.016-0.022,0.024
				c-0.009,0.009-0.014,0.016-0.023,0.025c-0.003,0.004-0.007,0.008-0.011,0.012c-0.009,0.009-0.016,0.017-0.024,0.026l6.605,6.113
				c1.876-2.028,3.854-4.011,5.879-5.895L171.601,151.994L171.601,151.994z M159.387,165.194c-0.077,0.096-0.158,0.199-0.234,0.296
				c-0.003,0.004-0.006,0.008-0.009,0.012c-0.01,0.013-0.023,0.029-0.034,0.042c-0.005,0.007-0.01,0.013-0.015,0.02
				c-0.006,0.008-0.014,0.017-0.02,0.025c-0.009,0.011-0.018,0.022-0.027,0.034c-0.006,0.008-0.013,0.016-0.019,0.024
				c-0.009,0.011-0.018,0.022-0.026,0.034c-0.004,0.005-0.014,0.017-0.018,0.022c-0.007,0.01-0.015,0.02-0.023,0.029
				c-0.006,0.008-0.012,0.015-0.018,0.023c-0.009,0.012-0.019,0.023-0.028,0.035c-0.004,0.005-0.008,0.011-0.013,0.016
				c-0.011,0.014-0.021,0.027-0.032,0.041c-0.004,0.005-0.009,0.012-0.014,0.017c-0.011,0.014-0.022,0.028-0.033,0.042
				c-0.004,0.005-0.006,0.007-0.01,0.013c-0.012,0.015-0.023,0.029-0.034,0.043c-0.002,0.002-0.003,0.003-0.005,0.006
				c-0.012,0.016-0.025,0.032-0.038,0.048c-0.002,0.002-0.003,0.004-0.005,0.007c-0.012,0.016-0.025,0.031-0.037,0.047
				c-0.004,0.005-0.004,0.005-0.008,0.011c-0.013,0.016-0.025,0.032-0.037,0.048c-0.002,0.002-0.003,0.003-0.005,0.006
				c-0.027,0.035-0.054,0.07-0.082,0.105l-0.002,0.003c-0.014,0.018-0.027,0.035-0.041,0.053l-0.002-0.173
				c-0.014,0.018-0.028-0.123-0.042-0.123h-0.089c-0.1,0-0.388,0.612-0.388,0.741v0.001c0,0.073-0.024,0.147-0.081,0.221
				c-0.002,0.002,0.044,0,0.042,0.003c-0.014,0.018-0.005,0.036-0.019,0.054c-0.002,0.002,0.012-0.002,0.01,0
				c-0.042,0.055-0.078,0.11-0.12,0.166c-0.002,0.002,0.002,0,0,0.003c-0.014,0.018-0.025,0.036-0.039,0.053
				c-0.002,0.002,0,0-0.001,0.003c-0.041,0.054-0.083,0.108-0.124,0.163c-0.002,0.002-0.001,0.002-0.003,0.005
				c-0.013,0.017-0.026,0.034-0.039,0.051c-0.002,0.002-0.003,0.003-0.005,0.006c-0.013,0.017-0.026,0.035-0.039,0.052l-0.002,0.003
				c-0.026,0.035-0.053,0.07-0.079,0.105c-0.002,0.002-0.005,0.006-0.007,0.009c-0.012,0.016-0.024,0.031-0.036,0.047
				c-0.004,0.005-0.004,0.006-0.008,0.011c-0.012,0.015-0.023,0.031-0.035,0.046c-0.004,0.005-0.004,0.006-0.008,0.011
				c-0.011,0.014-0.021,0.029-0.033,0.043c-0.004,0.005-0.005,0.007-0.009,0.012c-0.01,0.013-0.02,0.026-0.029,0.039
				c-0.004,0.005-0.009,0.011-0.013,0.017c-0.01,0.014-0.021,0.028-0.031,0.042c-0.004,0.005-0.008,0.011-0.012,0.016
				c-0.01,0.014-0.021,0.028-0.031,0.042c-0.004,0.005-0.009,0.012-0.013,0.018c-0.009,0.012-0.017,0.023-0.026,0.035
				c-0.004,0.005-0.012,0.016-0.016,0.021c-0.008,0.011-0.017,0.022-0.025,0.033c-0.004,0.005-0.01,0.014-0.014,0.019
				c-0.009,0.013-0.019,0.026-0.029,0.039c-0.004,0.005-0.012,0.016-0.016,0.021c-0.009,0.013-0.019,0.025-0.028,0.038
				c-0.006,0.008-0.01,0.014-0.017,0.022c-0.006,0.008-0.012,0.017-0.019,0.025c-0.01,0.014-0.017,0.023-0.027,0.037
				c-0.005,0.006-0.01,0.013-0.015,0.019c-0.01,0.014-0.021,0.029-0.031,0.042c-0.004,0.006-0.009,0.012-0.013,0.018
				c-0.008,0.011-0.013,0.018-0.021,0.028c-0.002,0.003-0.005,0.007-0.008,0.01c-0.012,0.016-0.025,0.034-0.037,0.05
				c-0.003,0.005-0.007,0.009-0.01,0.014c-0.012,0.016-0.024,0.033-0.036,0.049c-0.002,0.004-0.005,0.007-0.008,0.011
				c-0.012,0.016-0.029,0.04-0.041,0.056c-0.001,0.001-0.002,0.003-0.004,0.005c-0.938,1.271-1.849,2.557-2.739,3.868l7.447,5.055
				c1.55-2.285,3.208-4.54,4.928-6.704L159.387,165.194L159.387,165.194z M149.332,180.074c-1.184,2.064-2.332,4.17-3.332,6.317
				v0.001c0,0.021-0.064,0.041-0.074,0.061c-0.001,0.003-0.023,0.001-0.024,0.004c-0.01,0.02-0.031,0.04-0.041,0.06
				c-0.001,0.003-0.007,0.001-0.008,0.004c-0.009,0.019-0.021,0.038-0.03,0.057c-0.001,0.003-0.002,0.002-0.004,0.005
				c-0.009,0.019-0.019,0.037-0.028,0.055c-0.001,0.003-0.004,0.009-0.006,0.012c-0.008,0.017-0.018,0.035-0.026,0.052
				c-0.001,0.003-0.005,0.01-0.006,0.013c-0.008,0.017-0.016,0.033-0.024,0.049c-0.001,0.003-0.006,0.013-0.007,0.016
				c-0.007,0.014-0.014,0.028-0.021,0.042c-0.003,0.006-0.006,0.012-0.009,0.018c-0.007,0.015-0.015,0.03-0.022,0.045
				c-0.003,0.006-0.009,0.018-0.012,0.024c-0.007,0.014-0.014,0.028-0.021,0.042c-0.004,0.009-0.008,0.017-0.013,0.026
				c-0.003,0.008-0.008,0.016-0.012,0.024c-0.007,0.015-0.015,0.031-0.022,0.047c-0.003,0.006-0.006,0.012-0.009,0.018
				c-0.009,0.019-0.021,0.043-0.03,0.062c-0.001,0.002-0.002,0.004-0.003,0.006c-0.006,0.012-0.011,0.021-0.017,0.034
				c-0.002,0.004-0.004,0.008-0.006,0.013c-0.011,0.021-0.019,0.038-0.029,0.06c-0.001,0.002-0.002,0.005-0.004,0.008
				c-0.012,0.024-0.02,0.041-0.032,0.065c-0.001,0.001-0.001,0.003-0.002,0.004c-0.117,0.241-0.232,0.48-0.348,0.723l8.122,3.876
				c1.19-2.493,2.512-4.971,3.886-7.366L149.332,180.074L149.332,180.074z M141.612,196.303c-0.232,0.599-0.612,1.199-0.612,1.803
				c0,0,0,0.001,0,0.002c0,0.039,0,0.076,0,0.115c0,0,0,0.001,0,0.002c0,0.022-0.11,0.048-0.119,0.071
				c-0.001,0.003-0.049-0.202-0.05-0.199c-0.015,0.039-0.05-0.097-0.064-0.097c-0.001,0-0.012,0-0.012,0
				c-0.008,0-0.023,0.257-0.032,0.279c-0.001,0.005-0.006,0.114-0.008,0.119c-0.007,0.02-0.016,0.093-0.023,0.112
				c-0.002,0.005,0.159,0.035,0.157,0.04c-0.005,0.013,0.15,0.035,0.15,0.048c0,0,0,0.008,0,0.008c0,0.023-0.181,0.051-0.189,0.074
				c-0.002,0.006-0.086,0.013-0.088,0.019c-0.007,0.02-0.053,0.034-0.06,0.053c-0.002,0.007-0.026,0.015-0.028,0.021
				c-0.003,0.01-0.018,0.022-0.021,0.032c-0.005,0.013-0.015,0.027-0.02,0.041c-0.003,0.009-0.011,0.022-0.014,0.032
				c-0.002,0.006-0.005,0.012-0.008,0.019c-0.007,0.02-0.013,0.035-0.021,0.054c-0.002,0.006-0.004,0.013-0.007,0.019
				c-0.006,0.017-0.013,0.035-0.019,0.051c-0.002,0.007-0.005,0.015-0.007,0.021c-0.005,0.013-0.007,0.019-0.012,0.032
				c-0.003,0.008-0.006,0.017-0.009,0.025c-0.006,0.016-0.011,0.029-0.017,0.045c-0.002,0.007-0.005,0.015-0.008,0.022
				c-0.006,0.016-0.012,0.032-0.018,0.048c-0.002,0.008-0.005,0.016-0.008,0.023c-0.004,0.013-0.006,0.018-0.011,0.031
				c-0.003,0.009-0.006,0.019-0.01,0.028c-0.006,0.016-0.01,0.027-0.016,0.043c-0.003,0.008-0.006,0.017-0.009,0.025
				c-0.005,0.013-0.011,0.03-0.015,0.043c-0.003,0.009-0.007,0.018-0.01,0.027c-0.003,0.01-0.007,0.021-0.011,0.03
				c-0.005,0.014-0.01,0.027-0.015,0.041c-0.003,0.01-0.007,0.021-0.01,0.03c-0.003,0.008-0.006,0.017-0.009,0.025
				c-0.004,0.013-0.011,0.032-0.016,0.045c-0.003,0.008-0.006,0.017-0.009,0.025c-0.003,0.01-0.007,0.02-0.01,0.03
				c-0.005,0.014-0.01,0.027-0.015,0.042c-0.003,0.01-0.007,0.02-0.011,0.029s-0.007,0.02-0.01,0.029
				c-0.005,0.016-0.009,0.026-0.015,0.042c-0.003,0.009-0.006,0.017-0.009,0.025c-0.005,0.013-0.011,0.029-0.015,0.042
				c-0.003,0.01-0.007,0.02-0.01,0.03s-0.007,0.02-0.01,0.029c-0.003,0.009-0.007,0.019-0.01,0.029
				c-0.006,0.016-0.009,0.027-0.015,0.043c-0.003,0.008-0.006,0.017-0.009,0.025c-0.004,0.013-0.009,0.026-0.014,0.039
				c-0.004,0.011-0.007,0.021-0.011,0.032c-0.003,0.01-0.007,0.02-0.01,0.03c-0.004,0.013-0.009,0.026-0.014,0.039
				c-0.003,0.01-0.008,0.022-0.011,0.032c-0.003,0.008-0.006,0.017-0.008,0.024c-0.006,0.017-0.011,0.032-0.017,0.048
				c-0.002,0.008-0.005,0.016-0.008,0.023c-0.003,0.01-0.007,0.021-0.011,0.031c-0.005,0.014-0.01,0.027-0.014,0.041
				c-0.003,0.01-0.008,0.021-0.011,0.031c-0.002,0.007-0.005,0.015-0.007,0.022c-0.006,0.016-0.013,0.036-0.019,0.053
				c-0.001,0.005-0.004,0.011-0.006,0.017c-0.005,0.017-0.013,0.04-0.019,0.056c-0.002,0.006-0.004,0.012-0.006,0.019
				c-0.004,0.013-0.007,0.02-0.011,0.033c-0.002,0.007-0.005,0.014-0.007,0.021c-0.005,0.017-0.011,0.033-0.017,0.049
				c-0.003,0.009-0.006,0.018-0.009,0.026c-0.005,0.016-0.01,0.028-0.015,0.045c-0.003,0.008-0.005,0.016-0.008,0.024
				c-0.004,0.013-0.007,0.021-0.012,0.034c-0.002,0.007-0.005,0.014-0.007,0.021c-0.005,0.017-0.012,0.034-0.017,0.051
				c-0.002,0.006-0.004,0.013-0.007,0.02c-0.007,0.02-0.012,0.034-0.019,0.054c-0.002,0.006-0.004,0.012-0.006,0.019
				c-0.004,0.013-0.007,0.02-0.011,0.033c-0.001,0.005-0.003,0.01-0.005,0.014c-0.008,0.023-0.013,0.038-0.021,0.061
				c-0.001,0.005-0.003,0.01-0.005,0.015c-0.007,0.02-0.013,0.038-0.02,0.058c-0.002,0.006-0.004,0.011-0.006,0.017
				c-0.012,0.036-0.024,0.072-0.037,0.108c-0.002,0.006-0.004,0.011-0.005,0.017c-0.007,0.02-0.013,0.038-0.02,0.057
				c-0.002,0.005-0.003,0.011-0.005,0.016c-0.007,0.02-0.016,0.046-0.022,0.065c-0.001,0.002-0.001,0.005-0.002,0.007
				c-0.004,0.013-0.008,0.023-0.012,0.036c-0.001,0.004-0.003,0.008-0.004,0.012c-0.007,0.02-0.015,0.044-0.021,0.063
				c-0.001,0.003-0.002,0.007-0.004,0.011c-0.006,0.02-0.015,0.046-0.022,0.065c-0.001,0.003,0.195,0.007,0.193,0.01
				c-0.004,0.013,0.185,0.023,0.185,0.037c0,0,0,0.001,0,0.002c0,0.023-0.213,0.048-0.221,0.071
				c-0.001,0.005-0.102,0.01-0.104,0.016c-0.007,0.02-0.062,0.037-0.068,0.057c-0.002,0.005-0.029,0.011-0.031,0.017
				c-0.012,0.036-0.036,0.07-0.047,0.106c-0.002,0.007-0.011,0.015-0.013,0.022c-0.006,0.017-0.016,0.036-0.021,0.052
				c-0.002,0.006-0.005,0.012-0.007,0.019c-0.007,0.02-0.013,0.038-0.02,0.058c-0.002,0.005-0.004,0.01-0.006,0.016
				c-0.004,0.013-0.008,0.022-0.012,0.035c-0.001,0.004-0.003,0.009-0.004,0.014c-0.006,0.02-0.013,0.039-0.02,0.059
				c-0.002,0.006-0.004,0.012-0.006,0.018c-0.005,0.017-0.013,0.039-0.018,0.055c-0.002,0.006-0.004,0.012-0.006,0.018
				c-0.004,0.013-0.007,0.021-0.011,0.035c-0.001,0.005-0.003,0.01-0.005,0.015c-0.006,0.02-0.013,0.038-0.019,0.058
				c-0.002,0.007-0.004,0.013-0.006,0.02c-0.005,0.017-0.012,0.037-0.017,0.053c-0.002,0.007-0.004,0.014-0.007,0.021
				c-0.003,0.01-0.007,0.023-0.011,0.033c-0.004,0.014-0.009,0.027-0.014,0.042c-0.003,0.01-0.006,0.021-0.01,0.031
				c-0.002,0.007-0.005,0.015-0.007,0.022c-0.005,0.017-0.011,0.034-0.016,0.051c-0.002,0.007-0.005,0.015-0.007,0.022
				c-0.003,0.01-0.007,0.021-0.01,0.031c-0.004,0.014-0.009,0.028-0.014,0.042c-0.003,0.01-0.006,0.021-0.01,0.031
				c-0.003,0.01-0.006,0.02-0.009,0.029c-0.004,0.013-0.009,0.026-0.013,0.039c-0.003,0.011-0.007,0.021-0.01,0.032
				s-0.005,0.016-0.008,0.026c-0.005,0.015-0.01,0.031-0.015,0.046c-0.002,0.007-0.006,0.018-0.008,0.024
				c-0.005,0.017-0.01,0.033-0.016,0.049c-0.002,0.006-0.004,0.011-0.006,0.018c-0.005,0.015-0.009,0.029-0.014,0.044
				c-0.002,0.006-0.002,0.008-0.005,0.015c-0.005,0.018-0.011,0.036-0.017,0.054c-0.002,0.007-0.003,0.01-0.005,0.017
				c-0.006,0.019-0.012,0.037-0.018,0.055c-0.001,0.003-0.003,0.009-0.004,0.012c-0.006,0.018-0.012,0.037-0.018,0.055
				c-0.001,0.003-0.001,0.003-0.002,0.006c-0.006,0.02-0.013,0.04-0.019,0.06c-0.001,0.003-0.002,0.007-0.003,0.01
				c-0.006,0.02-0.013,0.04-0.019,0.06c-0.001,0.003,0.007,0.006,0.006,0.009c-0.013,0.042-0.031,0.085-0.031,0.127v0.003
				c0,0.022,0,0.043,0,0.065v0.002c0,0.381-0.259,0.764-0.375,1.147l8.601,2.617c0.805-2.648,1.749-5.295,2.747-7.869
				L141.612,196.303L141.612,196.303z M136.236,213.509c-0.056,0.249-0.236,0.491-0.236,0.74c0,0.001,0,0.003,0,0.005
				c0,0.014,0.067-0.143,0.063-0.128l0,0c-0.003,0.014,0.03-0.126,0.027-0.126h-0.036c-0.007,0-0.055,0.389-0.055,0.416
				c0,0.001,0,0.002,0,0.002c0,0.609-0.205,1.218-0.328,1.832c-0.409,2.037-0.737,4.074-1.038,6.106l8.916,1.321
				c0.279-1.882,0.618-3.785,0.993-5.656c0.17-0.851,0.318-1.697,0.507-2.54L136.236,213.509L136.236,213.509z M133.673,231.301
				c-0.22,3.011-0.324,6.01-0.317,8.992l9-0.021c-0.006-2.76,0.092-5.558,0.293-8.317L133.673,231.301L133.673,231.301z
				 M142.69,248.584l-8.973,0.7c0.002,0.03,0.005,0.062,0.007,0.092c0,0.01,0.001,0.019,0.002,0.027
				c0.001,0.012,0.001,0.021,0.002,0.031c0.001,0.018,0.003,0.034,0.004,0.051c0.001,0.012,0.001,0.016,0.002,0.027
				s0.002,0.023,0.003,0.035c0,0.008,0.001,0.017,0.002,0.024c0.001,0.019,0.003,0.036,0.004,0.055c0,0.004,0.127,0.019,0.127,0.022
				c0.001,0.015,0.129,0.03,0.129,0.046c0,0.008,0,0.007,0,0.015c0,0.021,0,0.041,0,0.062c0,0.004,0,0.009,0,0.013
				c0,0.02,0,0.039,0,0.06c0,0.004,0,0,0,0.004c0,0.022,0,0.044,0,0.066c0,0.004,0,0.003,0,0.007c0,0.045,0,0.091,0,0.136v0.002
				c0,2.742,0.448,5.464,0.865,8.163l8.839-1.375C143.282,254.117,142.905,251.338,142.69,248.584L142.69,248.584z M145.229,265.015
				l-8.798,2.041c0.192,0.824,0.569,1.645,0.569,2.463v0.002c0,0.021,0,0.044,0,0.065v0.002c0,0.022,0.052,0.044,0.058,0.065
				c0.001,0.004-0.037,0.003-0.036,0.006c0.005,0.021-0.021,0.042-0.021,0.063v0.003c0,0.021,0.069,0.041,0.075,0.062
				c0.001,0.004-0.044,0.01-0.043,0.014c0.005,0.019-0.032,0.038-0.032,0.057c0,0.004,0,0.001,0,0.005
				c0,0.02,0.086,0.039,0.091,0.059c0.002,0.007,0.041,0.01,0.043,0.018c0.005,0.02,0.029,0.038,0.034,0.058
				c0.001,0.004,0.01,0.003,0.011,0.007c0.004,0.017,0.013,0.034,0.018,0.051c0.002,0.008,0.006,0.015,0.008,0.021
				c0.004,0.018,0.011,0.036,0.015,0.054c0.002,0.007,0.003,0.011,0.005,0.019c0.003,0.013,0.007,0.026,0.011,0.04
				c0.003,0.011,0.004,0.013,0.006,0.024c0.004,0.017,0.009,0.033,0.014,0.05c0.001,0.008,0.004,0.019,0.006,0.025
				c0.003,0.011,0.006,0.021,0.008,0.032c0.003,0.011,0.004,0.017,0.007,0.027c0.004,0.016,0.008,0.032,0.013,0.048
				c0.003,0.012,0.005,0.019,0.008,0.029c0.002,0.01,0.005,0.019,0.007,0.028c0.005,0.018,0.007,0.027,0.012,0.045
				c0.003,0.011,0.006,0.021,0.008,0.031c0.003,0.012,0.005,0.021,0.008,0.031c0.002,0.008,0.004,0.017,0.006,0.024
				c0.006,0.021,0.009,0.035,0.015,0.058c0.002,0.006,0.004,0.013,0.005,0.019c0.003,0.012,0.006,0.023,0.009,0.034
				c0.002,0.008,0.004,0.015,0.006,0.022c0.006,0.021,0.01,0.037,0.016,0.059c0.001,0.007,0.003,0.013,0.005,0.019
				c0.003,0.011,0.007,0.025,0.01,0.037c0.001,0.003,0.002,0.006,0.002,0.01c0.006,0.021,0.014,0.05,0.02,0.071
				c0.001,0.005,0.002,0.009,0.003,0.014c0.011,0.04,0.021,0.078,0.032,0.118c0.001,0.005,0.003,0.011,0.004,0.016
				c0.011,0.04,0.021,0.081,0.033,0.121c0,0.003,0.001-0.152,0.002-0.149c0.012,0.044,0.022-0.03,0.034-0.03c0,0,0.215,0,0.215,0
				c0.326,2,0.248,2.707,1.248,3.895c0,0,0,0.001,0,0.002c0,0.116-0.145,0.227-0.108,0.343c0,0.001,0.035,0.003,0.035,0.005
				c0.014,0.043,0.073,0.084,0.073,0.127c0,0.001,0,0.002,0,0.002c0,0.043,0,0.085,0,0.128c0,0.001,0,0.002,0,0.003
				c0,0.043,0,0.084,0,0.127c0,0.001,0,0.002,0,0.004c0,0.036-0.079,0.065-0.068,0.102l8.538-2.693
				C146.642,270.405,145.855,267.704,145.229,265.015L145.229,265.015z M150.207,280.886l-8.361,3.329
				c0.001,0.004,0.003,0.008,0.004,0.012c0.006,0.015,0.012,0.029,0.018,0.044c0.001,0.004,0.005,0.013,0.006,0.016
				c0.007,0.02,0.015,0.038,0.023,0.058l0.002,0.007c0.008,0.02,0.016,0.039,0.024,0.06l0,0.001c0.89,2.223,1.844,4.415,2.862,6.576
				v0.001c0.02,0.041,0.039,0.082,0.059,0.123c0.001,0.004,0.001,0.002,0.002,0.006c0.009,0.019,0.018,0.038,0.027,0.057
				c0.003,0.007,0.003,0.008,0.007,0.015c0.007,0.014,0.014,0.028,0.02,0.042c0.003,0.007,0.004,0.01,0.008,0.017
				c0.008,0.017,0.016,0.032,0.023,0.049c0.005,0.01,0.006,0.014,0.011,0.023c0.005,0.011,0.01,0.021,0.015,0.031
				c0.006,0.014,0.012,0.025,0.019,0.039c0.004,0.009,0.009,0.019,0.013,0.027c0.006,0.014,0.009,0.021,0.016,0.034
				c0.001,0.003,0.003,0.007,0.005,0.011c0.155,0.325,0.315,0.658,0.474,0.982l8.09-3.944
				C152.361,286.015,151.229,283.452,150.207,280.886L150.207,280.886z M157.499,295.845l-7.773,4.535
				c0.454,0.778,0.824,1.55,1.295,2.317l0,0c0.024,0.038-0.021,0.076-0.021,0.114c0,0.001,0,0.001,0,0.002
				c0,0.025,0.121,0.047,0.136,0.072c0.001,0.002,0.048,0.003,0.049,0.005c0.023,0.038,0.066,0.07,0.09,0.109
				c0.001,0.002,0.014,0.005,0.016,0.008c0.021,0.035,0.049,0.07,0.071,0.105c0.002,0.004,0.008,0.009,0.011,0.014
				c0.014,0.021,0.028,0.042,0.042,0.064c0.001,0.002,0.003,0.003,0.004,0.005c0.008,0.013,0.013,0.021,0.021,0.034
				c0.002,0.004,0.005,0.007,0.007,0.011c0.012,0.019,0.026,0.042,0.038,0.061c0.002,0.004,0.004,0.008,0.007,0.012
				c0.008,0.013,0.012,0.02,0.021,0.032c0.003,0.006,0.006,0.011,0.01,0.017c0.012,0.019,0.019,0.029,0.031,0.049
				c0.004,0.008,0.009,0.016,0.014,0.022c0.006,0.01,0.011,0.018,0.017,0.027c0.007,0.011,0.013,0.021,0.02,0.031
				c0.008,0.013,0.015,0.024,0.023,0.037c0.004,0.007,0.009,0.014,0.013,0.021c0.006,0.01,0.012,0.019,0.018,0.028
				c0.008,0.014,0.016,0.026,0.024,0.039c0.006,0.01,0.011,0.017,0.017,0.026c0.005,0.009,0.011,0.018,0.016,0.025
				c0.006,0.01,0.017,0.026,0.022,0.036c0.006,0.01,0.013,0.021,0.019,0.03c0.004,0.006,0.012,0.019,0.016,0.025
				c0.006,0.01,0.013,0.021,0.02,0.031c0.006,0.009,0.013,0.02,0.019,0.029c0.007,0.011,0.014,0.022,0.021,0.033
				c0.004,0.007,0.009,0.015,0.013,0.021c0.01,0.016,0.02,0.031,0.029,0.046c0.004,0.007,0.007,0.011,0.011,0.018
				c0.007,0.011,0.015,0.022,0.021,0.034c0.004,0.007,0.008,0.014,0.013,0.02c0.01,0.016,0.02,0.031,0.029,0.047
				c0.002,0.003,0.008,0.014,0.011,0.017c0.008,0.013,0.015,0.024,0.023,0.037c0.004,0.006,0.006,0.01,0.011,0.016
				c0.01,0.016,0.02,0.031,0.029,0.047c0.004,0.007,0.008,0.012,0.012,0.019c0.008,0.013,0.016,0.025,0.024,0.038
				c0.004,0.007,0.008,0.013,0.012,0.02c0.009,0.014,0.018,0.027,0.027,0.042c0.004,0.006,0.007,0.011,0.011,0.018
				c0.01,0.016,0.021,0.032,0.031,0.048c0.002,0.003,0.005,0.009,0.007,0.012c0.009,0.014,0.017,0.027,0.026,0.041
				c0.002,0.003,0.008,0.013,0.01,0.016c0.01,0.016,0.021,0.032,0.031,0.049c0.004,0.006,0.005,0.008,0.009,0.014
				c0.009,0.014,0.018,0.027,0.027,0.042c0.004,0.006,0.003,0.006,0.008,0.012c0.01,0.017,0.021,0.033,0.032,0.05
				c0.002,0.003,0.006,0.011,0.008,0.014c0.01,0.016,0.02,0.031,0.03,0.047c0.002,0.003,0.001,0.002,0.003,0.006
				c0.011,0.017,0.022,0.034,0.033,0.051c0.004,0.007,0.005,0.008,0.009,0.014c0.022,0.035,0.045,0.07,0.067,0.105
				c0.002,0.003,0.005,0.008,0.007,0.011c0.012,0.018,0.023,0.035,0.034,0.054c0.002,0.003,0,0,0.002,0.004
				c0.011,0.017,0.022,0.033,0.033,0.051c0.002,0.003,0.003,0.005,0.006,0.008c0.011,0.018,0.022,0.035,0.034,0.054
				c0.002,0.003,0.003,0.005,0.005,0.009c0.01,0.016,0.021,0.031,0.031,0.047c0.002,0.004,0.003,0.005,0.005,0.009
				c0.011,0.018,0.022,0.035,0.034,0.053c0.002,0.003,0.004,0.006,0.006,0.009c0.011,0.017,0.021,0.033,0.032,0.05
				c0.002,0.003,0.001,0.002,0.003,0.005c0.012,0.019,0.023,0.036,0.035,0.054l0.005,0.009c0.023,0.036,0.047,0.072,0.071,0.109
				c0.002,0.003,0.003,0.005,0.005,0.008c0.012,0.018,0.023,0.035,0.035,0.054l0.004,0.007c0.011,0.016,0.021,0.032,0.032,0.049
				c0.002,0.003,0.003,0.004,0.005,0.008c0.011,0.018,0.023,0.035,0.035,0.053c0.002,0.003,0.003,0.005,0.005,0.009
				c0.011,0.016,0.021,0.033,0.032,0.049c0.002,0.004,0.002,0.003,0.004,0.006c0.011,0.018,0.022,0.034,0.033,0.051
				c0.004,0.007,0.005,0.008,0.009,0.015c0.011,0.017,0.022,0.034,0.033,0.051l0,0c0.011,0.018,0.022,0.034,0.034,0.052
				c0.004,0.006,0.005,0.007,0.009,0.014c0.011,0.017,0.022,0.033,0.033,0.05c0.002,0.003,0.004,0.006,0.006,0.009
				c0.009,0.015,0.019,0.028,0.027,0.043c0.002,0.003,0.009,0.013,0.011,0.016c0.01,0.016,0.021,0.031,0.031,0.047
				c0.004,0.006,0.007,0.012,0.012,0.018c0.007,0.012,0.015,0.022,0.022,0.034c0.004,0.006,0.008,0.012,0.012,0.019
				c0.01,0.015,0.02,0.029,0.029,0.044c0.004,0.006,0.01,0.015,0.014,0.021c0.006,0.01,0.013,0.02,0.02,0.029
				s0.015,0.022,0.021,0.031c0.007,0.012,0.015,0.022,0.022,0.033c0.004,0.007,0.011,0.017,0.015,0.022
				c0.006,0.01,0.013,0.021,0.02,0.03c0.008,0.013,0.015,0.022,0.023,0.034c0.006,0.01,0.012,0.019,0.018,0.027
				c0.006,0.009,0.01,0.015,0.016,0.024s0.013,0.019,0.019,0.028c0.008,0.013,0.018,0.026,0.026,0.039
				c0.005,0.007,0.009,0.015,0.014,0.021c0.008,0.012,0.019,0.027,0.027,0.04c0.006,0.009,0.011,0.018,0.017,0.025
				c0.006,0.01,0.014,0.021,0.02,0.03c0.003,0.005,0.007,0.011,0.01,0.016c0.023,0.034,0.046,0.068,0.069,0.103
				c0,0.001,0.001,0.002,0.001,0.003c0.309,0.462,0.616,0.916,0.931,1.373l7.415-5.102
				C160.394,300.599,158.892,298.232,157.499,295.845L157.499,295.845z M166.934,309.557l-7.015,5.639
				c0.52,0.647,1.049,1.291,1.582,1.928h0c0.029,0.035,0.057,0.068,0.086,0.103c0,0.001,0.178,0.002,0.179,0.002
				c0.02,0.023,0.233,0.044,0.233,0.066c0,0.001,0,0.001,0,0.002c0,0.012-0.159,0.021-0.15,0.032
				c0.003,0.003-0.083,0.006-0.081,0.009c0.015,0.018-0.017,0.033-0.002,0.051c0.006,0.006-0.012,0.012-0.007,0.018
				c0.007,0.009,0.003,0.017,0.011,0.025c0.007,0.008,0.007,0.016,0.014,0.023c0.012,0.015,0.016,0.021,0.028,0.036
				c0.006,0.008,0.011,0.015,0.017,0.021c0.007,0.009,0.011,0.015,0.018,0.022c0.011,0.013,0.021,0.025,0.032,0.038
				c0.007,0.009,0.011,0.014,0.018,0.021c0.008,0.01,0.015,0.019,0.023,0.027c0.005,0.006,0.01,0.013,0.015,0.019
				c0.012,0.014,0.023,0.027,0.035,0.041c0.005,0.006,0.01,0.012,0.015,0.018c0.01,0.011,0.019,0.021,0.029,0.033
				c0.002,0.003,0.011,0.013,0.013,0.016c0.011,0.013,0.022,0.025,0.033,0.039c0.005,0.006,0.009,0.011,0.014,0.017
				c0.013,0.015,0.025,0.029,0.038,0.044c0.002,0.003,0.003,0.004,0.005,0.007c0.012,0.014,0.024,0.028,0.036,0.042
				c0.002,0.003,0.007,0.008,0.009,0.011c0.014,0.016,0.027,0.032,0.041,0.048l0.002,0.003c0.013,0.016,0.026,0.031,0.04,0.047
				c0.002,0.003,0.004,0.005,0.006,0.008c0.014,0.016,0.028,0.031,0.042,0.048c0.002,0.003,0.003,0.004,0.006,0.007
				c0.013,0.016,0.026,0.031,0.04,0.047c0.002,0.003,0.001,0,0.003,0.003c0.014,0.017,0.028,0.033,0.042,0.05
				c0.002,0.003,0.003,0.004,0.005,0.006c0.029,0.034,0.058,0.067,0.086,0.102l0.004,0.004c0.03,0.035,0.06,0.069,0.089,0.104
				c0.002,0.003,0-0.001,0.002,0.002c0.076,0.088,0.152,0.177,0.229,0.265l0.001,0.002c0.982,1.133,1.986,2.248,3.012,3.344
				l6.574-6.146C170.502,313.829,168.666,311.712,166.934,309.557L166.934,309.557z M178.297,321.712l-6.097,6.62
				c0.319,0.295,0.636,0.583,0.958,0.874c0.002,0.001,0.003,0.003,0.004,0.004c0.034,0.03,0.063,0.056,0.096,0.086
				c0.002,0.003,0.005-0.175,0.007-0.173c0.02,0.018,0.042-0.123,0.062-0.123c0,0,0.001,0,0.001,0c0.011,0,0.019,0.196,0.03,0.207
				c0.004,0.003,0.008,0.097,0.012,0.1c0.017,0.016,0.034,0.076,0.051,0.091c0.003,0.003,0.007,0.029,0.011,0.032
				c0.011,0.011,0.018,0.027,0.029,0.037c0.004,0.004,0.008,0.013,0.012,0.017c0.017,0.015,0.029,0.028,0.046,0.044
				c0.006,0.005,0.012,0.013,0.018,0.018c0.009,0.008,0.017,0.015,0.025,0.022c0.007,0.007,0.015,0.015,0.022,0.021
				c0.014,0.013,0.022,0.02,0.036,0.032c0.007,0.006,0.014,0.012,0.02,0.018c0.009,0.008,0.016,0.015,0.024,0.021
				c0.012,0.011,0.024,0.021,0.036,0.032c0.009,0.008,0.013,0.012,0.022,0.02c0.007,0.007,0.015,0.014,0.022,0.021
				c0.009,0.008,0.013,0.012,0.021,0.019c0.013,0.012,0.026,0.023,0.039,0.034c0.008,0.008,0.01,0.009,0.018,0.017
				c0.01,0.009,0.02,0.018,0.03,0.026c0.006,0.005,0.014,0.012,0.02,0.018c0.013,0.011,0.025,0.021,0.038,0.033
				c0.006,0.005,0.011,0.01,0.017,0.015c0.012,0.011,0.023,0.021,0.035,0.031c0.006,0.005,0.009,0.008,0.015,0.013
				c0.013,0.012,0.025,0.022,0.038,0.034c0.006,0.005,0.009,0.008,0.015,0.013c0.015,0.013,0.029,0.026,0.044,0.039
				c0.003,0.002,0.005,0.004,0.008,0.007c0.014,0.013,0.028,0.024,0.042,0.037c0.002,0.002,0.006,0.005,0.008,0.007
				c0.016,0.015,0.032,0.028,0.048,0.042l0.005,0.005c0.015,0.014,0.031,0.027,0.046,0.041l0.004,0.004
				c0.017,0.015,0.033,0.028,0.049,0.043l0.005,0.004c0.069,0.062,0.139,0.122,0.208,0.183l0.001,0.001
				c1.481,1.295,2.996,2.555,4.543,3.779l5.583-7.059C182.461,325.403,180.331,323.585,178.297,321.712L178.297,321.712z
				 M191.342,332.029l-5.037,7.459c0.922,0.623,1.851,1.23,2.792,1.829c0.001,0.001,0.002,0.001,0.003,0.002
				c0.035,0.022,0.073,0.046,0.108,0.068c0.003,0.003,0.007,0.005,0.011,0.008c0.013,0.008,0.02,0.013,0.033,0.021
				c0.004,0.003,0.009,0.006,0.013,0.009c0.02,0.012,0.037,0.023,0.056,0.035c0.005,0.004,0.011,0.007,0.016,0.011
				c0.016,0.01,0.033,0.021,0.049,0.03c0.007,0.005,0.015,0.01,0.022,0.014c0.009,0.007,0.017,0.012,0.027,0.018
				c0.008,0.005,0.016,0.01,0.023,0.015c0.009,0.006,0.017,0.011,0.026,0.017c0.014,0.009,0.029,0.018,0.042,0.026
				c0.01,0.007,0.013,0.008,0.022,0.015c0.01,0.006,0.021,0.013,0.03,0.019c0.007,0.004,0.018,0.011,0.024,0.016
				c0.014,0.009,0.028,0.018,0.042,0.026c0.006,0.004,0.014,0.009,0.021,0.013c0.012,0.008,0.024,0.016,0.036,0.022
				c0.006,0.004,0.009,0.006,0.015,0.01c0.016,0.01,0.032,0.02,0.048,0.03c0.006,0.004,0.011,0.007,0.017,0.011
				c0.014,0.009,0.027,0.017,0.042,0.025c0.003,0.002,0.011,0.008,0.015,0.01c0.016,0.01,0.031,0.02,0.047,0.029
				c0.007,0.004,0.007,0.005,0.014,0.009c0.017,0.011,0.034,0.021,0.051,0.032c0.003,0.002,0.003,0.001,0.006,0.003
				c0.016,0.011,0.032,0.021,0.048,0.03c0.003,0.002,0.01,0.006,0.013,0.008c0.017,0.011,0.034,0.021,0.052,0.032
				c0.003,0.002,0.005,0.003,0.008,0.005c0.016,0.01,0.032,0.021,0.048,0.03c0.003,0.002,0.006,0.004,0.009,0.006
				c0.019,0.012,0.037,0.023,0.056,0.034l0.001,0.001c0.019,0.012,0.038,0.023,0.057,0.035l0.003-0.037
				c0.02,0.012,0.039-0.004,0.058-0.004h0.002c0.02,0-0.178,0.064-0.158,0.076l0,0c0.02,0.013-0.157,0.045-0.157,0.057v0.011
				c1,0.517,1.899,1.028,2.752,1.525c0.003,0.002,0.106,0.001,0.109,0.003c0.041,0.023,0.135,0.141,0.176,0.164l0,0
				c0.041,0.023,0.135,0.164,0.175,0.164h0.001c0.02,0,0.04,0,0.06,0h0.003c0.039,0,0.078-0.027,0.117-0.006
				c0.003,0.002,0.005-0.034,0.008-0.032c0.018,0.011,0.035,0.002,0.053,0.013c0.003,0.001,0.001-0.01,0.005-0.008
				c0.018,0.011,0.037,0.018,0.055,0.028c0.003,0.002,0.007,0.001,0.011,0.003c0.017,0.01,0.034,0.02,0.051,0.029
				c0.003,0.001,0.001,0,0.004,0.002c0.018,0.011,0.036,0.02,0.053,0.029c0.007,0.004,0.008,0.005,0.014,0.009
				c0.016,0.009,0.032,0.019,0.048,0.027c0.007,0.004,0.009,0.005,0.016,0.009c0.014,0.008,0.028,0.016,0.042,0.024
				c0.006,0.004,0.013,0.007,0.02,0.011c0.014,0.008,0.028,0.017,0.042,0.024c0.01,0.006,0.017,0.01,0.027,0.016
				c0.009,0.005,0.019,0.011,0.028,0.016c0.01,0.006,0.017,0.01,0.027,0.016c0.009,0.005,0.018,0.011,0.026,0.016
				c0.01,0.005,0.013,0.007,0.023,0.013l4.46-7.817C196.009,335.053,193.632,333.575,191.342,332.029L191.342,332.029z
				 M205.783,340.268l-3.857,8.132c2.695,1.278,5.454,2.463,8.269,3.547l3.235-8.398
				C210.849,342.554,208.276,341.45,205.783,340.268L205.783,340.268z M221.303,346.246l-2.597,8.617
				c2.851,0.858,5.754,1.618,8.706,2.274l1.952-8.786C226.657,347.75,223.945,347.042,221.303,346.246L221.303,346.246z
				 M237.563,349.858l-1.3,8.745c1.462,0.213,2.923,0.396,4.382,0.396c0,0,0.001,0,0.001,0c0.045,0,0.089,0,0.134,0
				c0.002,0,0.005,0,0.007,0c0.015,0,0.029,0,0.043,0c0,0,0.001,0,0.001,0c0.027,0,0.055,0.178,0.083,0.18
				c0.005,0.002,0.01,0.087,0.015,0.088c0.013,0.001,0.026,0.045,0.039,0.047c0.006,0.001,0.012,0.022,0.019,0.023
				c0.02,0.002,0.04,0.015,0.06,0.017c0.009,0.001,0.019,0.007,0.028,0.009c0.01,0,0.021,0.005,0.031,0.006
				c0.015,0.001,0.03,0.005,0.045,0.007c0.01,0.001,0.021,0.002,0.031,0.003c0.012,0.001,0.023,0.003,0.035,0.005
				c0.009,0.001,0.018,0.001,0.026,0.002c0.018,0.002,0.036,0.004,0.054,0.006c0.007,0.001,0.014,0.001,0.021,0.002
				c0.014,0.002,0.029,0.003,0.043,0.005c0.007,0,0.013-0.202,0.02-0.201c0.02,0.002,0.039-0.197,0.059-0.197
				c0.004,0,0.007,0,0.011,0c0.018,0,0.035,0,0.052,0c0.005,0,0.01,0,0.015,0c0.021,0,0.041,0,0.062,0c0.003,0,0.005,0,0.008,0
				c0.019,0,0.039,0,0.058,0c0.003,0,0.007,0,0.01,0c0.045,0,0.089,0,0.134,0c0.001,0,0.001,0,0.002,0
				c1.141,1,2.279,0.431,3.417,0.511l0.632-8.867C243.09,350.449,240.304,350.259,237.563,349.858L237.563,349.858z
				 M262.473,350.674c-2.752,0.221-5.549,0.34-8.312,0.354l0.043,9c3.016-0.015,6.014-0.144,8.99-0.383L262.473,350.674
				L262.473,350.674z M278.897,348.096c-2.69,0.633-5.437,1.171-8.164,1.599l1.396,8.853c2.648-0.416,5.273-0.547,7.872-1.547
				c0.003,0,0,0,0.003,0c0.021,0,0.042,0.029,0.063,0.024c0.003-0.001,0.005,0.019,0.008,0.017c0.021-0.004,0.041,0,0.062-0.004
				c0.003-0.001,0.005-0.012,0.009-0.012c0.019-0.005,0.037-0.025,0.056-0.025c0.004,0,0.006,0,0.009,0
				c0.019,0,0.038,0.006,0.057,0.002c0.003-0.002,0.013,0.005,0.017,0.004c0.018-0.004,0.035-0.005,0.052-0.009
				c0.007-0.001,0.016-0.001,0.021-0.003c0.015-0.003,0.028-0.006,0.043-0.009c0.01-0.002,0.021-0.004,0.03-0.006
				c0.011-0.003,0.022-0.006,0.034-0.008c0.01-0.003,0.026-0.006,0.036-0.009c0.011-0.002,0.021-0.005,0.031-0.007
				c0.01-0.003,0.021-0.005,0.031-0.008c0.014-0.003,0.027-0.006,0.041-0.009c0.014-0.004,0.021-0.005,0.034-0.008
				c0.004-0.002,0.009-0.002,0.013-0.004c0.022-0.005,0.043-0.01,0.066-0.015c0.002-0.001,0.003-0.001,0.005-0.002
				c0.081-0.019,0.156-0.036,0.237-0.055L278.897,348.096L278.897,348.096z M294.756,343.08c-2.566,1.029-5.203,1.973-7.836,2.806
				l2.714,8.581c2.866-0.906,5.691-1.919,8.472-3.033L294.756,343.08L294.756,343.08z M309.697,335.752
				c-2.385,1.399-4.853,2.727-7.334,3.943l3.963,8.08c2.695-1.321,5.339-2.743,7.926-4.26L309.697,335.752L309.697,335.752z
				 M323.388,326.286c-2.15,1.737-4.394,3.415-6.669,4.988l5.119,7.402c2.467-1.706,4.87-3.504,7.205-5.39L323.388,326.286
				L323.388,326.286z M335.517,314.894c-1.867,2.036-3.835,4.029-5.852,5.922l6.162,6.561c0.01-0.009,0.021-0.021,0.031-0.029
				c0.002-0.002,0.004-0.004,0.006-0.006c0.029-0.027,0.056-0.052,0.084-0.079c0.002-0.001,0.003-0.003,0.005-0.004
				c0.02-0.019,0.034-0.033,0.054-0.051c0-0.001,0.001-0.001,0.002-0.002c0.644-0.606,1.279-1.221,1.91-1.842
				c0.001-0.001,0.001-0.001,0.002-0.002c0.019-0.019,0.034-0.034,0.053-0.053c0.002-0.001,0.003-0.002,0.005-0.004
				c0.019-0.019,0.032-0.032,0.051-0.051c0.002-0.001,0.003-0.002,0.004-0.004c0.028-0.027,0.055-0.054,0.083-0.082
				c0.001-0.001,0.001-0.001,0.002-0.002c0.02-0.019,0.033-0.033,0.052-0.052c0.003-0.002,0.006-0.005,0.008-0.007
				c0.017-0.017,0.031-0.031,0.048-0.048c0.002-0.002,0.004-0.004,0.006-0.006c0.017-0.017,0.032-0.032,0.049-0.048
				c0.002-0.003,0.005-0.005,0.007-0.007c0.025-0.026,0.053-0.053,0.079-0.079c0.005-0.005,0.011-0.011,0.016-0.016
				c0.012-0.012,0.024-0.024,0.036-0.036c0.006-0.006,0.011-0.011,0.016-0.016c0.012-0.012,0.024-0.024,0.036-0.036
				c0.006-0.006,0.013-0.012,0.019-0.019c0.007-0.007,0.015-0.015,0.021-0.021c0.011-0.01,0.021-0.021,0.031-0.031
				c0.007-0.007,0.014-0.014,0.021-0.021c0.012-0.011,0.022-0.022,0.033-0.033c0.007-0.007,0.011-0.011,0.018-0.018
				c0.008-0.008,0.016-0.016,0.023-0.023c0.01-0.01,0.02-0.02,0.028-0.028c0.008-0.008,0.017-0.017,0.024-0.024
				c0.007-0.007,0.01-0.01,0.018-0.018c0.011-0.011,0.022-0.022,0.034-0.034c0.005-0.005,0.013-0.013,0.018-0.018
				c0.012-0.012,0.023-0.023,0.035-0.036c0.007-0.007,0.008-0.008,0.015-0.015c0.011-0.011,0.021-0.021,0.032-0.032
				c0.007-0.007,0.013-0.013,0.02-0.02c0.01-0.01,0.02-0.02,0.028-0.028c0.005-0.005,0.012-0.012,0.017-0.017
				c0.012-0.012,0.023-0.024,0.035-0.036c0.005-0.005,0.01-0.009,0.014-0.014c0.013-0.013,0.026-0.026,0.039-0.039
				c0.004-0.005,0.007-0.007,0.012-0.012c0.013-0.014,0.026-0.027,0.04-0.04c0.004-0.005,0.005-0.006,0.009-0.01
				c0.014-0.014,0.026-0.026,0.039-0.04c0.003-0.002,0.003-0.003,0.005-0.005c0.015-0.015,0.029-0.029,0.044-0.044
				c0.002-0.002,0.005-0.005,0.008-0.008c0.014-0.015,0.028-0.028,0.042-0.043c0.005-0.005,0.003-0.003,0.008-0.008
				c0.015-0.015,0.029-0.029,0.044-0.044c0.002-0.003,0.003-0.004,0.005-0.006c0.048-0.049,0.097-0.098,0.145-0.146l0.001-0.001
				c0.016-0.017,0.032-0.033,0.048-0.05l0.001-0.001c0.918-0.938,1.821-1.892,2.71-2.86L335.517,314.894L335.517,314.894z
				 M345.802,301.825c-1.539,2.292-3.187,4.555-4.896,6.727l7.072,5.566c1.849-2.349,3.619-4.779,5.295-7.274L345.802,301.825
				L345.802,301.825z M354.007,287.364c-1.179,2.498-2.467,4.983-3.829,7.385l7.827,4.441c0.479-0.844,0.946-1.691,1.405-2.549
				c0.001-0.001,0.002-0.002,0.002-0.003c0.032-0.06,0.062-0.115,0.094-0.176c0.001-0.002,0.002-0.004,0.003-0.006
				c0.012-0.021,0.022-0.042,0.034-0.063c0.001-0.003,0.002-0.005,0.004-0.008c0.03-0.057,0.061-0.114,0.091-0.172
				c0.002-0.003,0.004-0.007,0.006-0.011c0.01-0.018,0.022-0.043,0.032-0.061c0.001-0.002,0.002-0.005,0.004-0.007
				c0.019-0.035,0.035-0.067,0.055-0.104c0.001-0.003,0.003-0.005,0.004-0.008c0.01-0.018,0.021-0.041,0.031-0.06
				c0.002-0.004,0.005-0.009,0.007-0.013c0.01-0.019,0.018-0.034,0.027-0.053c0.003-0.005,0.091-0.011,0.094-0.016
				c0.006-0.012,0.103-0.021,0.103-0.033c0,0,0-0.001,0-0.002c0-0.021-0.061-0.044-0.051-0.065c0.002-0.004-0.038-0.008-0.035-0.013
				c0.009-0.018,0-0.039,0.01-0.058c0.002-0.003-0.008-0.007-0.006-0.011c0.011-0.021,0.015-0.038,0.025-0.06
				c0.002-0.003,0.002-0.006,0.003-0.009c0.007-0.012,0.01-0.021,0.016-0.034c0.002-0.002,0.003-0.005,0.004-0.007
				c0.01-0.018,0.021-0.043,0.031-0.061c0.002-0.004,0.004-0.008,0.006-0.012c0.01-0.019,0.02-0.038,0.029-0.057
				c0.002-0.004,0.005-0.009,0.007-0.014c0.019-0.035,0.033-0.063,0.052-0.1c0.003-0.005,0.006-0.011,0.009-0.016
				c0.01-0.019,0.019-0.036,0.027-0.054c0.002-0.004,0.005-0.008,0.007-0.012c0.009-0.019,0.021-0.04,0.03-0.059
				c0.001-0.003,0.004-0.008,0.005-0.011c0.02-0.036,0.034-0.065,0.053-0.102c0.003-0.005,0.006-0.011,0.008-0.016
				c0.01-0.019,0.018-0.033,0.026-0.051c0.003-0.006,0.006-0.011,0.009-0.017c0.009-0.018,0.019-0.035,0.027-0.054
				c0.003-0.005,0.005-0.01,0.008-0.015c0.006-0.012,0.01-0.019,0.016-0.03c0.004-0.008,0.008-0.015,0.012-0.022
				c0.008-0.015,0.016-0.03,0.023-0.046c0.003-0.006,0.007-0.013,0.01-0.02c0.008-0.015,0.016-0.03,0.023-0.045
				c0.004-0.008,0.008-0.015,0.012-0.022c0.008-0.015,0.017-0.032,0.023-0.047c0.004-0.007,0.007-0.013,0.011-0.02
				c0.006-0.012,0.009-0.019,0.016-0.03c0.003-0.008,0.007-0.015,0.011-0.022c0.008-0.015,0.016-0.029,0.023-0.045
				c0.003-0.007,0.007-0.014,0.01-0.021c0.008-0.015,0.016-0.03,0.023-0.045c0.004-0.008,0.008-0.015,0.011-0.022
				c0.005-0.009,0.011-0.02,0.015-0.028c0.007-0.013,0.014-0.026,0.021-0.039c0.005-0.009,0.01-0.02,0.015-0.028
				c0.004-0.008,0.008-0.016,0.012-0.024c0.008-0.015,0.015-0.027,0.021-0.043c0.004-0.007,0.008-0.015,0.012-0.022
				c0.008-0.015,0.015-0.028,0.022-0.044c0.004-0.007,0.008-0.015,0.012-0.021c0.006-0.013,0.009-0.019,0.015-0.03
				c0.007-0.013,0.014-0.026,0.02-0.039c0.005-0.009,0.01-0.018,0.014-0.027c0.005-0.008,0.009-0.017,0.013-0.024
				c0.008-0.015,0.015-0.028,0.022-0.043c0.003-0.008,0.007-0.016,0.011-0.022c0.006-0.012,0.013-0.025,0.019-0.037
				c0.005-0.01,0.011-0.021,0.016-0.03c0.006-0.012,0.008-0.017,0.015-0.028c0.004-0.01,0.009-0.019,0.013-0.027
				c0.007-0.013,0.014-0.026,0.02-0.039c0.005-0.009,0.01-0.018,0.014-0.026c0.006-0.012,0.014-0.026,0.02-0.038
				c0.005-0.01,0.009-0.02,0.014-0.028c0.005-0.01,0.009-0.017,0.013-0.025c0.007-0.014,0.015-0.028,0.021-0.042
				c0.004-0.009,0.008-0.016,0.013-0.025c0.006-0.013,0.013-0.025,0.019-0.038c0.005-0.009,0.009-0.017,0.013-0.025
				c0.006-0.012,0.012-0.023,0.018-0.035c0.003-0.006,0.008-0.016,0.011-0.021c0.007-0.014,0.015-0.027,0.021-0.042
				c0.004-0.009,0.006-0.013,0.011-0.022c0.008-0.015,0.015-0.029,0.022-0.044c0.004-0.009,0.007-0.014,0.011-0.022
				c0.007-0.013,0.013-0.024,0.019-0.037c0.004-0.009,0.01-0.019,0.014-0.027c0.006-0.012,0.012-0.022,0.017-0.034
				c0.003-0.006,0.009-0.018,0.012-0.023c0.007-0.015,0.015-0.028,0.021-0.042c0.003-0.007,0.008-0.018,0.011-0.023
				c0.008-0.015,0.015-0.028,0.021-0.043c0.005-0.009,0.008-0.015,0.012-0.024c0.006-0.011,0.012-0.022,0.017-0.033
				c0.006-0.012,0.009-0.017,0.015-0.028c0.006-0.013,0.012-0.023,0.018-0.036c0.003-0.006,0.007-0.015,0.01-0.021
				c0.008-0.016,0.016-0.031,0.023-0.047c0.003-0.006,0.006-0.013,0.009-0.019c0.008-0.016,0.017-0.032,0.024-0.048
				c0.003-0.006,0.005-0.012,0.008-0.018c0.007-0.014,0.014-0.027,0.021-0.041c0.003-0.007,0.006-0.012,0.009-0.018
				c0.008-0.016,0.015-0.031,0.022-0.046c0.001-0.003,0.007-0.015,0.009-0.018c0.008-0.016,0.016-0.032,0.023-0.049
				c0.003-0.006,0.006-0.011,0.009-0.018c0.008-0.016,0.016-0.033,0.024-0.049c0.003-0.007,0.003-0.008,0.007-0.014
				c0.007-0.016,0.015-0.03,0.021-0.045c0.002-0.003,0.005-0.01,0.006-0.013c0.009-0.018,0.018-0.035,0.025-0.053
				c0.002-0.003,0.005-0.009,0.007-0.012c0.009-0.019,0.018-0.037,0.026-0.055c0.001-0.003,0.003-0.007,0.005-0.01
				c0.009-0.019,0.018-0.037,0.026-0.056c0.002-0.003,0.002-0.004,0.004-0.007c0.009-0.019,0.018-0.037,0.026-0.056l0.003-0.005
				c0.009-0.019,0.018-0.038,0.027-0.057c0.001-0.003,0.003-0.007,0.005-0.01c0.009-0.019,0.018-0.037,0.027-0.057l0.158-0.006
				c0.02-0.041,0.213-0.081,0.213-0.122v-0.002c0-0.02-0.135-0.04-0.125-0.06l-0.074-0.006c0.142-0.296,0.244-0.593,0.385-0.89
				L354.007,287.364L354.007,287.364z M359.947,271.829c-0.792,2.651-1.693,5.303-2.679,7.881l8.406,3.214
				c0.005-0.013,0.007-0.018,0.012-0.03c0.001-0.003,0.002-0.005,0.003-0.007c0.008-0.022,0.017-0.044,0.025-0.066
				c0.001-0.003,0.002-0.006,0.003-0.009c0.005-0.013,0.009-0.023,0.014-0.036c0.001-0.002,0.002-0.005,0.003-0.007
				c0.007-0.02,0.018-0.046,0.024-0.065c0.002-0.004,0.004-0.009,0.005-0.013c0.009-0.022,0.017-0.044,0.025-0.066
				c0.001-0.002,0.001-0.004,0.002-0.005c0.015-0.039,0.027-0.072,0.042-0.11c0.001-0.004,0.003-0.008,0.004-0.012
				c0.009-0.022,0.017-0.044,0.025-0.066c0.001-0.002,0.001-0.004,0.002-0.005c0.015-0.039,0.027-0.073,0.042-0.112
				c0.001-0.003,0.002-0.006,0.004-0.009c0.007-0.02,0.016-0.044,0.023-0.063c0.002-0.004,0.003-0.009,0.005-0.013
				c0.013-0.035,0.027-0.074,0.041-0.109c0.001-0.002,0.001-0.004,0.002-0.007c0.008-0.019,0.018-0.047,0.025-0.066
				c0.001-0.004,0.003-0.007,0.004-0.011c0.022-0.062,0.047-0.125,0.069-0.187c0.001-0.002-0.075-0.003-0.074-0.004
				c0.023-0.064-0.006-0.127-0.006-0.191c0,0,0-0.001,0-0.002c0-0.025,0-0.047,0-0.073c0-0.001,0-0.003,0-0.004
				c1-1.769,1.356-3.562,1.929-5.374c0.001-0.003,0.048-0.007,0.048-0.01c0.008-0.023,0.038-0.045,0.045-0.068
				c0.001-0.003,0.013-0.005,0.014-0.008c0.004-0.014,0.013-0.022,0.017-0.035c0.003-0.008,0.008-0.015,0.01-0.021
				c0.006-0.017,0.013-0.032,0.018-0.049c0.003-0.011,0.007-0.021,0.01-0.031c0.003-0.01,0.007-0.019,0.01-0.028
				c0.005-0.015,0.009-0.029,0.014-0.045c0.002-0.006,0.005-0.014,0.007-0.021c0.006-0.018,0.011-0.034,0.017-0.052
				c0.001-0.004-0.076-0.013-0.074-0.016c0.005-0.019-0.062-0.037-0.062-0.056v-0.003c0-0.021,0.093-0.042,0.099-0.063
				c0.001-0.004,0.04-0.004,0.042-0.007c0.006-0.021,0.033-0.042,0.039-0.063c0.002-0.003,0.011,0,0.012-0.004
				c0.125-0.404,0.253-0.81,0.375-1.216L359.947,271.829L359.947,271.829z M363.522,255.561c-0.295,2.056-0.652,4.135-1.063,6.179
				c-0.136,0.678-0.277,1.353-0.426,2.024l8.791,1.856c0.04-0.182,0.079-0.62,0.118-0.62h0.021c0.004,0,0.035,0.106,0.035,0.084
				c0-0.003,0-0.003,0-0.006c0-0.021,0-0.04,0-0.061c0-0.003,0-0.002,0-0.005c0-0.02-0.005-0.038-0.001-0.058
				c0.001-0.007-0.005-0.011-0.003-0.018c0.004-0.018,0.004-0.036,0.008-0.054c0.002-0.007,0.001-0.013,0.003-0.02
				c0.003-0.014,0.004-0.027,0.007-0.04c0.002-0.007,0.003-0.017,0.004-0.023c0.004-0.016,0.007-0.031,0.011-0.047
				c0.001-0.007,0.004-0.021,0.005-0.027c0.003-0.013,0.006-0.024,0.008-0.037c0.003-0.01,0.006-0.026,0.008-0.037
				c0.002-0.01,0.004-0.019,0.007-0.028c0.002-0.01,0.004-0.022,0.007-0.032c0.003-0.015,0.006-0.028,0.009-0.043
				c0.002-0.01,0.004-0.019,0.006-0.028c0.002-0.011,0.004-0.021,0.007-0.031c0.002-0.014,0.006-0.029,0.009-0.043
				c0.002-0.01,0.004-0.02,0.006-0.029c0.002-0.011,0.004-0.019,0.006-0.028c0.003-0.016,0.007-0.031,0.01-0.047
				c0.002-0.011,0.004-0.017,0.006-0.027s0.005-0.022,0.007-0.034c0.002-0.011,0.005-0.021,0.007-0.032
				c0.003-0.014,0.006-0.027,0.009-0.041c0.001-0.007,0.003-0.015,0.004-0.021c0.004-0.018,0.008-0.035,0.011-0.053
				c0.002-0.007,0.003-0.013,0.004-0.02c0.003-0.015,0.007-0.029,0.01-0.043c0.001-0.007,0.002-0.01,0.003-0.018
				c0.004-0.018,0.008-0.036,0.012-0.055c0.001-0.007,0.002-0.011,0.003-0.018c0.004-0.019,0.008-0.037,0.012-0.056
				c0.001-0.004,0.002-0.01,0.003-0.013c0.003-0.018,0.007-0.035,0.011-0.053l0.002-0.01c0.004-0.02,0.008-0.039,0.012-0.059
				c0.001-0.007,0.002-0.008,0.003-0.015c0.004-0.021,0.008-0.04,0.012-0.06c0.001-0.004,0.001-0.003,0.002-0.006
				c0.003-0.019,0.007-0.037,0.011-0.057c0.001-0.003,0.002-0.009,0.003-0.012c0.004-0.02,0.008-0.04,0.012-0.06
				c0.001-0.003,0.002-0.009,0.002-0.012c0.005-0.021,0.009-0.041,0.013-0.062c0.003-0.017,0.007-0.033,0.01-0.05
				c0.002-0.008,0.002-0.01,0.004-0.018c0.002-0.011,0.004-0.021,0.007-0.032c0.001-0.008,0.002-0.014,0.004-0.021
				c0.002-0.01,0.004-0.02,0.006-0.028c0-0.004,0.003-0.019,0.004-0.022c0.002-0.01,0.004-0.019,0.006-0.027
				c0.001-0.008,0.003-0.018,0.005-0.025s0.003-0.016,0.005-0.023c0.001-0.009,0.003-0.018,0.005-0.025
				c0.002-0.009,0.003-0.018,0.005-0.025c0.002-0.009,0.003-0.017,0.005-0.024c0.002-0.01,0.004-0.019,0.006-0.027
				c0.001-0.009,0.002-0.014,0.004-0.021c0.002-0.01,0.004-0.019,0.006-0.028c0.001-0.008,0.003-0.016,0.004-0.024
				c0.002-0.009,0.004-0.018,0.006-0.027c0.002-0.008,0.003-0.013,0.004-0.021c0.002-0.012,0.005-0.022,0.007-0.034
				c0.001-0.004,0.003-0.013,0.003-0.017c0.004-0.017,0.007-0.033,0.01-0.05c0.001-0.004,0.002-0.007,0.002-0.011
				c0.003-0.013,0.006-0.025,0.008-0.038c0.002-0.008,0.003-0.013,0.004-0.021c0.002-0.011,0.004-0.021,0.006-0.031
				c0.001-0.004,0.003-0.015,0.004-0.019c0.002-0.011,0.004-0.021,0.006-0.03c0.002-0.008,0.003-0.014,0.005-0.021
				c0.001-0.01,0.003-0.02,0.005-0.029c0.002-0.008,0.003-0.015,0.005-0.022c0.001-0.009,0.003-0.017,0.005-0.025
				c0.001-0.008,0.003-0.018,0.005-0.025c0.002-0.009,0.003-0.018,0.005-0.026c0.002-0.008,0.003-0.015,0.005-0.022
				c0.001-0.01,0.003-0.019,0.005-0.027c0.001-0.004,0.004-0.019,0.004-0.023c0.002-0.009,0.004-0.02,0.006-0.028
				s0.003-0.014,0.004-0.021c0.002-0.01,0.004-0.02,0.006-0.028c0.001-0.009,0.003-0.014,0.004-0.021
				c0.007-0.033,0.013-0.066,0.02-0.1c0.001-0.008,0.001-0.01,0.003-0.018c0.002-0.011,0.004-0.021,0.006-0.032
				c0.002-0.008,0.003-0.016,0.005-0.023c0.001-0.009,0.003-0.017,0.005-0.025c0.002-0.012,0.002-0.014,0.005-0.025
				c0.001-0.009,0.003-0.018,0.005-0.025c0.001-0.008,0.002-0.014,0.004-0.022c0.002-0.01,0.004-0.019,0.006-0.028
				c0.001-0.008,0.002-0.015,0.004-0.023s0.003-0.018,0.005-0.026c0.002-0.008,0.003-0.015,0.005-0.022
				c0.001-0.01,0.003-0.019,0.005-0.027c0.001-0.008,0.003-0.017,0.004-0.024c0.002-0.009,0.004-0.019,0.006-0.028
				c0.001-0.004,0.003-0.016,0.004-0.02c0.002-0.011,0.004-0.021,0.006-0.032c0.001-0.008,0.002-0.011,0.003-0.019
				c0.003-0.013,0.005-0.025,0.008-0.037c0-0.004,0.001-0.009,0.002-0.013c0.002-0.011,0.004-0.021,0.006-0.032
				c0.002-0.013,0.005-0.027,0.008-0.039c0.001-0.01,0.003-0.02,0.005-0.029c0.002-0.008,0.002-0.009,0.003-0.017
				c0.002-0.011,0.004-0.021,0.006-0.032c0.002-0.008,0.003-0.014,0.005-0.021c0.001-0.01,0.003-0.02,0.005-0.029
				c0.001-0.004,0.003-0.017,0.004-0.021c0.002-0.01,0.004-0.02,0.005-0.029c0.002-0.008,0.003-0.014,0.004-0.021
				c0.002-0.01,0.004-0.021,0.006-0.03c0.002-0.008,0.002-0.012,0.004-0.02c0.002-0.01,0.004-0.02,0.005-0.029
				c0.002-0.008,0.003-0.015,0.005-0.022c0.001-0.009,0.003-0.019,0.005-0.027c0-0.004,0.003-0.02,0.004-0.023
				c0.002-0.009,0.003-0.018,0.005-0.026c0.002-0.008,0.003-0.015,0.004-0.022c0.003-0.012,0.005-0.023,0.007-0.035
				c0.001-0.004,0.146-0.011,0.146-0.015c0.006-0.034,0.162-0.067,0.162-0.102c0-0.004,0-0.001,0-0.005
				c0-0.015-0.138-0.03-0.135-0.045c0.001-0.005-0.07-0.009-0.07-0.013c0.002-0.013-0.03-0.025-0.028-0.038
				c0.001-0.004,0.109-0.011,0.11-0.015c0.002-0.012,0.123-0.023,0.123-0.035c0-0.004,0-0.014,0-0.018
				c0-0.011-0.125-0.022-0.123-0.033c0.001-0.008-0.063-0.009-0.061-0.017c0.002-0.012-0.028-0.022-0.026-0.034
				c0.001-0.008-0.015-0.009-0.014-0.017c0.002-0.012-0.004-0.024-0.001-0.036c0-0.004,0.107-0.01,0.109-0.014
				c0.002-0.013,0.115-0.026,0.115-0.039c0-0.004,0,0.094,0,0.09c0-0.034-0.209,0-0.203,0h0.092c0.006,0,0.111-0.271,0.111-0.307
				v-0.002c0-0.016,0-0.032,0-0.049v-0.006c0-0.015-0.082-0.029-0.08-0.044c0-0.004,0.037-0.006,0.038-0.01
				c0.002-0.015,0.042-0.029,0.042-0.045v-0.003c0-0.017,0-0.032,0-0.049v-0.003c0-0.034-0.062-0.068-0.056-0.103l0,0
				c0.205-1.182,0.354-2.362,0.524-3.542L363.522,255.561L363.522,255.561z M373.651,238.896l-9,0.064
				c0.021,2.76-0.065,5.559-0.253,8.319l8.979,0.611C373.583,244.879,373.673,241.879,373.651,238.896L373.651,238.896z
				 M372.239,220.974l-8.923,1.417c0.434,2.728,0.752,5.506,0.979,8.258l8.88-0.743c-0.027-0.328-0.176-0.655-0.176-0.982
				c0-0.004,0,0,0-0.004c0-0.044,0-0.088,0-0.133c0-0.003,0-0.007,0-0.011c0-0.042,0-0.084,0-0.127c0-0.007,0-0.007,0-0.015
				c0-0.041,0.061-0.083,0.057-0.124c-0.002-0.008-0.026-0.009-0.027-0.017c-0.001-0.02-0.029-0.04-0.029-0.06
				c0-0.004,0-0.006,0-0.01c0-0.018,0.055-0.036,0.053-0.053c0-0.004,0.027-0.014,0.027-0.018c-0.002-0.02,0.011-0.04,0.009-0.059
				c-0.001-0.007-0.04-0.008-0.041-0.015c-0.001-0.015-0.048-0.03-0.048-0.045c0-0.008,0-0.016,0-0.023c0-0.019,0-0.037,0-0.055
				c0-0.008,0-0.013,0-0.021c0-0.014,0.042-0.026,0.04-0.04c-0.001-0.011,0.021-0.013,0.021-0.024
				c-0.002-0.018-0.027-0.036-0.029-0.053c0-0.008-0.031-0.017-0.031-0.024c0-0.013,0-0.025,0-0.037c0-0.008,0-0.018,0-0.026
				c0-0.017,0-0.035,0-0.052c0-0.012,0-0.014,0-0.025c0-0.012,0.027-0.024,0.026-0.036c-0.001-0.007,0.013-0.017,0.013-0.025
				c-0.002-0.018,0.004-0.035,0.002-0.052c-0.001-0.012,0.002-0.016,0.001-0.027c-0.001-0.011,0-0.022-0.001-0.034
				c-0.001-0.007-0.002-0.023-0.003-0.031c-0.001-0.016-0.003-0.031-0.005-0.047c0-0.008-0.001-0.019-0.001-0.026
				c-0.002-0.013-0.003-0.025-0.004-0.038c-0.001-0.008-0.002-0.017-0.003-0.025c-0.002-0.018-0.004-0.034-0.006-0.052
				c0-0.007-0.001-0.015-0.002-0.023c-0.001-0.014-0.003-0.028-0.004-0.042c-0.001-0.008-0.003-0.021-0.004-0.028
				c-0.001-0.015-0.003-0.03-0.004-0.045c-0.001-0.007-0.002-0.016-0.003-0.023c-0.002-0.016-0.003-0.032-0.005-0.049
				c-0.001-0.007-0.001-0.012-0.002-0.02c-0.002-0.016-0.004-0.031-0.005-0.047c-0.001-0.008-0.002-0.016-0.003-0.023
				c-0.002-0.017-0.004-0.033-0.005-0.05c-0.001-0.008-0.002-0.015-0.003-0.022c-0.001-0.015-0.003-0.03-0.005-0.045
				c-0.001-0.007-0.001-0.013-0.002-0.021c-0.002-0.019-0.004-0.038-0.006-0.057c-0.001-0.008-0.001-0.009-0.002-0.017
				c-0.002-0.015-0.003-0.03-0.005-0.045c-0.001-0.004-0.002-0.017-0.002-0.02c-0.002-0.019-0.005-0.038-0.007-0.057
				c-0.001-0.007-0.001-0.01-0.002-0.018c-0.001-0.015-0.003-0.031-0.005-0.046c0-0.004,0.031-0.014,0.029-0.018
				c-0.002-0.02,0.025-0.04,0.025-0.059c0-0.008,0-0.006,0-0.014c0-0.017,0-0.033,0-0.05c0-0.004,0-0.011,0-0.015
				c0-0.02-0.041-0.04-0.043-0.059c0-0.004,0.023-0.013,0.023-0.017c-0.002-0.017,0.02-0.034,0.02-0.051c0-0.004,0-0.008,0-0.012
				c0-0.021-0.049-0.041-0.051-0.062c0-0.004,0.029-0.007,0.028-0.011c-0.002-0.021,0.022-0.041,0.022-0.062v-0.002
				c0-0.021,0-0.043,0-0.065c0-0.004,0-0.007,0-0.011c0-0.043,0-0.087,0-0.13c0-0.004,0-0.003,0-0.007c0-0.044,0-0.089,0-0.134
				v-0.004C373,224.302,372.504,222.633,372.239,220.974L372.239,220.974z M368.192,203.479l-8.667,2.734
				c0.84,2.634,1.543,5.332,2.182,8.018l8.648-2.083c-0.384-1.612-0.355-3.208-1.355-4.798c0-0.001,0-0.002,0-0.002
				c0-0.117,0-0.23,0-0.347c0,0,0-0.001,0-0.002c0-0.015,0-0.028,0-0.043c0,0,0-0.001,0-0.002c0-0.025,0.014-0.053,0.006-0.078
				c0-0.004,0.013-0.008,0.011-0.012c-0.011-0.04-0.015-0.08-0.026-0.12c-0.001-0.004,0.001-0.008-0.001-0.012
				c-0.01-0.037-0.021-0.08-0.031-0.116c-0.002-0.007-0.003-0.014-0.005-0.021c-0.006-0.018-0.01-0.037-0.016-0.055
				c-0.002-0.008-0.004-0.015-0.006-0.022c-0.004-0.011-0.007-0.022-0.01-0.033c-0.003-0.008-0.005-0.016-0.007-0.023
				c-0.005-0.019-0.01-0.032-0.015-0.05c-0.003-0.009-0.006-0.019-0.008-0.028c-0.002-0.007-0.007-0.022-0.009-0.03
				c-0.003-0.011-0.007-0.022-0.01-0.033c-0.004-0.014-0.007-0.023-0.011-0.038c-0.004-0.012-0.007-0.023-0.011-0.035
				c-0.002-0.007-0.005-0.019-0.008-0.026c-0.004-0.016-0.009-0.031-0.014-0.047c-0.002-0.007-0.005-0.019-0.007-0.025
				c-0.004-0.013-0.008-0.024-0.011-0.037c-0.003-0.007-0.005-0.015-0.007-0.022c-0.005-0.018-0.011-0.035-0.016-0.053
				c-0.002-0.007-0.003-0.012-0.006-0.019c-0.004-0.014-0.008-0.029-0.013-0.044c-0.002-0.007-0.003-0.009-0.005-0.016
				c-0.006-0.019-0.011-0.038-0.017-0.057c-0.001-0.003-0.003-0.011-0.004-0.014c-0.006-0.018-0.011-0.035-0.016-0.053
				c-0.001-0.004-0.001-0.004-0.003-0.008c-0.006-0.02-0.012-0.04-0.018-0.06c-0.001-0.004,0.152-0.009,0.15-0.013
				c-0.006-0.02,0.139-0.039,0.139-0.059v-0.002c0-0.02-0.168-0.041-0.174-0.061c-0.001-0.004,0.105-0.008,0.104-0.011
				c-0.013-0.042,0.069-0.084,0.069-0.126c0-0.003,0-0.001,0-0.004C368,204.817,368.405,204.147,368.192,203.479L368.192,203.479z
				 M361.069,186.803l-7.968,3.982c1.225,2.48,2.421,5.037,3.455,7.599l8.371-3.369c-0.105-0.26-0.197-0.521-0.305-0.78
				c-0.001-0.003,0.005-0.002,0.004-0.006c-0.017-0.041-0.029-0.081-0.046-0.122c-0.002-0.004,0.222-0.007,0.22-0.011
				c-0.008-0.02,0.199-0.039,0.199-0.059c0-0.003,0-0.002,0-0.006c0-0.017-0.237-0.033-0.244-0.049
				c-0.003-0.007-0.117-0.012-0.119-0.019c-0.008-0.017-0.071-0.034-0.078-0.051c-0.003-0.007-0.032-0.012-0.035-0.019
				c-0.005-0.013-0.025-0.025-0.03-0.037c-0.003-0.007-0.014-0.016-0.016-0.022c-0.007-0.017-0.017-0.032-0.023-0.049
				c-0.005-0.01-0.008-0.013-0.012-0.024c-0.005-0.01-0.01-0.021-0.015-0.031c-0.003-0.007-0.01-0.023-0.013-0.03
				c-0.006-0.014-0.012-0.028-0.018-0.042c-0.005-0.01-0.007-0.016-0.011-0.026c-0.005-0.01-0.009-0.02-0.013-0.029
				c-0.006-0.014-0.014-0.033-0.02-0.047c-0.003-0.008-0.007-0.015-0.01-0.022c-0.006-0.014-0.008-0.02-0.014-0.034
				c-0.002-0.004-0.004-0.009-0.006-0.014c-0.009-0.021-0.019-0.045-0.027-0.065c-0.002-0.004-0.003-0.007-0.005-0.011
				c-0.018-0.042-0.031-0.075-0.049-0.117c-0.001-0.003-0.098-0.006-0.099-0.009c-0.018-0.042-0.146-0.078-0.146-0.119
				c0-0.001,0-0.002,0-0.003c0-0.846-0.631-2.163-1.008-2.163h0.032c-0.019,0-0.024-0.441-0.024-0.482c0-0.001,0-0.002,0-0.003
				c0-0.041-0.02-0.078-0.039-0.12c0-0.001,0.006-0.003,0.005-0.005c-0.019-0.041-0.03-0.077-0.049-0.118
				c-0.002-0.002,0.058-0.005,0.057-0.008c-0.013-0.027,0.026-0.048,0.026-0.075c0-0.001,0-0.001,0-0.002
				c0-0.014-0.07-0.025-0.078-0.039c0-0.002-0.03-0.004-0.031-0.006c-0.011-0.024-0.037-0.049-0.048-0.073
				c-0.001-0.002,0.087-0.005,0.086-0.008c-0.006-0.014,0.071-0.024,0.071-0.038c0-0.001,0-0.002,0-0.003
				c0-0.024-0.119-0.048-0.131-0.072c-0.002-0.004-0.052-0.009-0.054-0.013c-0.016-0.034-0.06-0.076-0.075-0.11
				c-0.002-0.005-0.018-0.011-0.02-0.016c-0.008-0.017-0.024-0.04-0.032-0.057c-0.003-0.006-0.009-0.012-0.012-0.018
				c-0.005-0.01-0.011-0.021-0.015-0.031c-0.004-0.008-0.009-0.016-0.013-0.024c-0.006-0.014-0.015-0.031-0.021-0.044
				c-0.004-0.009-0.008-0.018-0.012-0.026c-0.006-0.014-0.008-0.018-0.015-0.032c-0.004-0.007-0.007-0.015-0.011-0.022
				c-0.006-0.014-0.015-0.033-0.021-0.047c-0.004-0.009-0.008-0.017-0.012-0.025c-0.005-0.01-0.009-0.02-0.014-0.03
				c-0.004-0.009-0.009-0.019-0.013-0.028c-0.008-0.017-0.013-0.027-0.021-0.044c-0.004-0.008-0.008-0.016-0.011-0.023
				c-0.005-0.01-0.009-0.019-0.014-0.029c-0.007-0.015-0.014-0.029-0.021-0.043c-0.005-0.01-0.008-0.018-0.013-0.028
				c-0.004-0.009-0.009-0.018-0.013-0.027c-0.006-0.014-0.009-0.018-0.015-0.032s-0.013-0.027-0.019-0.041
				c-0.004-0.007-0.009-0.019-0.013-0.026c-0.004-0.009-0.009-0.019-0.013-0.028c-0.007-0.014-0.012-0.025-0.019-0.039
				c-0.005-0.011-0.01-0.021-0.015-0.032c-0.004-0.007-0.009-0.018-0.012-0.024c-0.006-0.013-0.012-0.025-0.018-0.037
				c-0.005-0.01-0.011-0.022-0.016-0.033s-0.009-0.021-0.014-0.031c-0.005-0.01-0.008-0.016-0.013-0.026
				c-0.007-0.015-0.015-0.03-0.021-0.045c-0.003-0.006-0.008-0.018-0.012-0.024c-0.005-0.01-0.009-0.02-0.014-0.03
				s-0.007-0.014-0.012-0.024c-0.007-0.016-0.015-0.031-0.021-0.047c-0.005-0.01-0.006-0.012-0.011-0.022
				c-0.006-0.012-0.012-0.024-0.017-0.036c-0.004-0.007-0.007-0.013-0.01-0.02c-0.007-0.016-0.015-0.031-0.021-0.047
				c-0.004-0.006-0.01-0.019-0.013-0.026c-0.005-0.011-0.01-0.021-0.016-0.032c-0.005-0.01-0.01-0.021-0.015-0.032
				c-0.006-0.012-0.012-0.023-0.017-0.036c-0.004-0.007-0.009-0.018-0.012-0.024c-0.007-0.014-0.014-0.027-0.02-0.041
				c-0.005-0.01-0.007-0.015-0.012-0.025c-0.006-0.012-0.012-0.024-0.018-0.036c-0.003-0.007-0.008-0.016-0.011-0.022
				c-0.008-0.016-0.016-0.032-0.022-0.048c-0.004-0.007-0.007-0.014-0.011-0.021c-0.005-0.011-0.011-0.022-0.016-0.034
				c-0.004-0.007-0.008-0.015-0.011-0.022c-0.008-0.016-0.015-0.031-0.022-0.047c-0.005-0.01-0.007-0.014-0.012-0.024
				s-0.01-0.021-0.015-0.031c-0.005-0.01-0.01-0.021-0.015-0.031c-0.006-0.013-0.013-0.026-0.019-0.039
				c-0.003-0.007-0.01-0.02-0.013-0.026c-0.004-0.009-0.009-0.018-0.013-0.027c-0.007-0.014-0.014-0.029-0.021-0.042
				c-0.005-0.009-0.009-0.019-0.014-0.028c-0.003-0.007-0.01-0.021-0.013-0.027c-0.005-0.009-0.009-0.019-0.014-0.028
				c-0.008-0.017-0.013-0.027-0.021-0.044c-0.004-0.008-0.008-0.017-0.012-0.025c-0.005-0.01-0.009-0.019-0.014-0.028
				c-0.007-0.015-0.014-0.029-0.021-0.044c-0.005-0.01-0.008-0.017-0.013-0.027c-0.004-0.008-0.008-0.016-0.012-0.024
				c-0.008-0.017-0.014-0.028-0.022-0.045c-0.004-0.008-0.008-0.017-0.012-0.025c-0.005-0.01-0.011-0.022-0.016-0.032
				c-0.003-0.006-0.006-0.012-0.009-0.018c-0.01-0.021-0.021-0.042-0.03-0.063c-0.002-0.003-0.003-0.006-0.005-0.009
				c-0.007-0.014-0.011-0.023-0.018-0.036c-0.002-0.004-0.004-0.008-0.006-0.012c-0.01-0.02-0.022-0.047-0.032-0.067
				c-0.001-0.002-0.003-0.005-0.004-0.007c-0.007-0.014-0.012-0.025-0.019-0.039l0,0c-0.014-0.027-0.024-0.049-0.037-0.077
				c-0.002-0.002-0.211-0.005-0.213-0.007c-0.02-0.041-0.266-0.077-0.266-0.117c0-0.001,0-0.002,0-0.002
				C361,186.991,361.115,186.897,361.069,186.803L361.069,186.803z M352.142,171.313l-7.391,5.136
				c1.578,2.271,3.09,4.629,4.494,7.011l7.627-4.572c-0.246-0.417,0.128-0.833-0.872-1.248c0,0,0-0.001,0-0.001
				c0-0.013,0.111-0.022,0.104-0.036c-0.002-0.004,0.059-0.008,0.056-0.012c-0.012-0.019,0.009-0.037-0.003-0.056
				c-0.003-0.006,0.009-0.012,0.006-0.018c-0.006-0.009-0.005-0.021-0.011-0.03c-0.005-0.008-0.006-0.017-0.012-0.025
				c-0.01-0.016-0.013-0.024-0.022-0.04c-0.005-0.009-0.01-0.018-0.016-0.027c-0.006-0.01-0.008-0.013-0.014-0.023
				c-0.008-0.015-0.018-0.03-0.026-0.045c-0.004-0.006-0.008-0.013-0.012-0.019c-0.008-0.013-0.016-0.026-0.023-0.039
				c-0.004-0.006-0.004-0.006-0.008-0.013c-0.01-0.017-0.021-0.033-0.03-0.05c-0.004-0.006-0.006-0.009-0.01-0.015
				c-0.021-0.036-0.044-0.071-0.065-0.107c-0.002-0.003-0.003-0.005-0.005-0.008c-0.023-0.038-0.047-0.076-0.07-0.114
				c-0.002-0.003,0,0-0.002-0.003C354.657,175.042,353.425,173.16,352.142,171.313L352.142,171.313z M340.758,157.35l-6.521,6.177
				c1.896,2.01,3.755,4.118,5.498,6.265l6.994-5.672c-0.004-0.006-0.006-0.011-0.01-0.017c-0.005-0.005-0.009-0.011-0.013-0.017
				c-0.015-0.018-0.029-0.037-0.043-0.054c-0.002-0.002,0.182-0.005,0.18-0.007c-0.01-0.012,0.157-0.021,0.157-0.033
				c0,0,0-0.001,0-0.001c-2-1.492-2.648-2.99-3.934-3.99h-0.093c-0.03,0-0.104-0.263-0.135-0.296
				c-0.003-0.003-0.027-0.105-0.029-0.107c-0.016-0.017-0.047-0.088-0.063-0.105c-0.002-0.003-0.011-0.03-0.013-0.033
				c-0.01-0.011-0.02-0.031-0.029-0.042c-0.004-0.004-0.008-0.013-0.012-0.017c-0.016-0.017-0.028-0.034-0.043-0.051
				c-0.005-0.005-0.011-0.012-0.016-0.018c-0.008-0.008-0.016-0.018-0.023-0.026c-0.007-0.007-0.014-0.016-0.021-0.023
				c-0.013-0.014-0.019-0.021-0.031-0.035c-0.007-0.007-0.014-0.015-0.02-0.022c-0.008-0.008-0.013-0.014-0.021-0.022
				c-0.012-0.012-0.022-0.025-0.034-0.037c-0.007-0.008-0.009-0.011-0.017-0.019c-0.009-0.01-0.018-0.02-0.026-0.029
				c-0.005-0.005-0.009-0.009-0.014-0.015c-0.013-0.014-0.025-0.027-0.037-0.042c-0.006-0.005-0.01-0.01-0.015-0.015
				c-0.01-0.012-0.021-0.023-0.031-0.035c-0.005-0.005-0.009-0.009-0.014-0.015c-0.012-0.013-0.024-0.027-0.036-0.04
				c-0.005-0.006-0.005-0.006-0.011-0.011c-0.014-0.016-0.027-0.031-0.042-0.046c-0.002-0.003,0.001,0-0.002-0.002
				c-0.014-0.016-0.028-0.031-0.042-0.047c-0.003-0.003-0.003-0.003-0.006-0.006c-0.015-0.016-0.03-0.033-0.045-0.049l-0.053-0.002
				c-0.015-0.017-0.096-0.033-0.096-0.05v-0.001C342,158.274,341.191,157.811,340.758,157.35L340.758,157.35z M327.521,145.23
				l-5.55,7.085c2.174,1.703,4.312,3.511,6.354,5.374l6.065-6.649c-0.926-0.844-1.868-1.678-2.821-2.494
				c-0.001,0-0.002-0.001-0.002-0.001c-0.012-0.01-0.021-0.018-0.033-0.028c-0.002-0.001-0.003-0.002-0.005-0.004
				c-0.021-0.017-0.039-0.033-0.06-0.05c-0.003-0.003-0.006-0.005-0.009-0.008c-0.031-0.027-0.062-0.052-0.093-0.08
				c-0.005-0.003-0.009-0.007-0.014-0.011c-0.028-0.024-0.061-0.051-0.089-0.076c-0.007-0.005-0.013-0.011-0.02-0.017
				c-0.015-0.012-0.027-0.023-0.042-0.035c-0.006-0.005-0.012-0.011-0.019-0.016c-0.009-0.007-0.018-0.015-0.026-0.022
				c-0.006-0.006-0.013-0.011-0.02-0.017c-0.011-0.01-0.024-0.021-0.036-0.031c-0.008-0.007-0.017-0.014-0.024-0.021
				c-0.006-0.005-0.018-0.015-0.023-0.02c-0.009-0.007-0.017-0.014-0.025-0.021c-0.012-0.01-0.02-0.016-0.031-0.026
				c-0.009-0.008-0.02-0.017-0.029-0.025c-0.005-0.005-0.013-0.011-0.019-0.016c-0.014-0.012-0.027-0.023-0.041-0.035
				c-0.006-0.005-0.01-0.009-0.016-0.014c-0.011-0.009-0.021-0.018-0.031-0.026c-0.003-0.002-0.014-0.012-0.017-0.014
				c-0.015-0.012-0.028-0.023-0.042-0.035c-0.006-0.005-0.011-0.009-0.017-0.014c-0.012-0.009-0.023-0.019-0.034-0.028
				c-0.006-0.005-0.008-0.006-0.014-0.011c-0.015-0.013-0.029-0.025-0.045-0.038c-0.003-0.002-0.009-0.007-0.012-0.01
				c-0.014-0.012-0.027-0.023-0.041-0.035c-0.003-0.002-0.004-0.003-0.007-0.006c-0.016-0.013-0.031-0.026-0.047-0.039
				c-0.003-0.002-0.01-0.008-0.012-0.01c-0.017-0.013-0.032-0.026-0.048-0.04l0,0c-0.017-0.014-0.032-0.027-0.049-0.041
				c-0.003-0.002-0.007-0.005-0.01-0.008c-0.032-0.027-0.065-0.055-0.099-0.083c-0.003-0.002-0.005-0.004-0.008-0.006
				c-0.017-0.014-0.033-0.028-0.05-0.042l-0.004-0.002c-0.016-0.013-0.031-0.027-0.048-0.04c-0.003-0.002-0.003-0.002-0.006-0.005
				c-0.017-0.014-0.033-0.028-0.05-0.042c-0.003-0.002-0.003-0.002-0.006-0.005c-0.016-0.013-0.031-0.026-0.047-0.039l-0.005-0.004
				c-0.017-0.014-0.033-0.028-0.05-0.042c-0.003-0.002-0.004-0.003-0.007-0.005c-0.017-0.014-0.033-0.027-0.05-0.042v0
				c-0.018-0.014-0.034-0.028-0.052-0.042l-0.006-0.005c-0.034-0.028-0.068-0.057-0.103-0.085l-0.005-0.003
				c-0.034-0.028-0.068-0.057-0.103-0.085c-0.003-0.002-0.004-0.003-0.007-0.005c-0.017-0.014-0.033-0.027-0.05-0.041l-0.007-0.006
				c-0.015-0.012-0.029-0.024-0.045-0.037l-0.007-0.005c-0.016-0.013-0.032-0.026-0.049-0.04c-0.003-0.002-0.006-0.004-0.009-0.007
				c-0.016-0.013-0.031-0.026-0.047-0.039c-0.002-0.002,0,0-0.003-0.002c-0.016-0.013-0.032-0.027-0.048-0.04
				c-0.003-0.002-0.009-0.007-0.012-0.009c-0.017-0.013-0.032-0.026-0.048-0.039l0,0c-0.017-0.013-0.032-0.026-0.049-0.04
				c-0.006-0.005-0.007-0.005-0.013-0.01c-0.016-0.013-0.031-0.025-0.047-0.038c-0.003-0.002-0.004-0.003-0.006-0.005
				c-0.015-0.012-0.028-0.022-0.042-0.034c-0.003-0.002-0.011-0.009-0.015-0.011c-0.015-0.012-0.029-0.024-0.044-0.037
				c-0.006-0.004-0.008-0.006-0.014-0.011c-0.012-0.009-0.023-0.019-0.034-0.028c-0.003-0.002-0.014-0.01-0.017-0.013
				c-0.015-0.012-0.028-0.023-0.043-0.036c-0.006-0.004-0.01-0.008-0.016-0.013c-0.012-0.009-0.021-0.017-0.032-0.026
				c-0.006-0.005-0.013-0.01-0.019-0.015c-0.014-0.011-0.027-0.022-0.042-0.034c-0.006-0.005-0.012-0.01-0.018-0.015
				c-0.011-0.008-0.021-0.017-0.031-0.025c-0.009-0.007-0.014-0.011-0.022-0.019c-0.012-0.009-0.022-0.019-0.034-0.028
				c-0.006-0.004-0.017-0.014-0.023-0.018c-0.008-0.007-0.016-0.013-0.023-0.02c-0.012-0.009-0.026-0.021-0.038-0.031
				c-0.008-0.006-0.015-0.012-0.022-0.018c-0.009-0.007-0.016-0.013-0.024-0.02c-0.008-0.007-0.017-0.013-0.024-0.02
				c-0.015-0.012-0.024-0.019-0.039-0.031c-0.006-0.005-0.012-0.01-0.019-0.015c-0.009-0.007-0.019-0.015-0.027-0.022
				c-0.003-0.002-0.006-0.004-0.008-0.006c-0.019-0.014-0.041-0.032-0.059-0.046c-0.004-0.003-0.007-0.006-0.011-0.009
				c-0.032-0.026-0.067-0.054-0.101-0.081c-0.001,0-0.001-0.001-0.002-0.002C328.167,145.739,327.847,145.485,327.521,145.23
				L327.521,145.23z M312.568,135.238l-4.422,7.839c2.405,1.356,4.789,2.823,7.086,4.358l5.001-7.482
				c-1.165-0.779-2.132-1.538-3.327-2.278l0,0c-0.041-0.024,0.094-0.049,0.094-0.073v0.235c0-0.024-0.507,0.163-0.546,0.163h-0.002
				c-0.159-1-0.452-0.433-0.452-0.529v-0.119c0-0.012-0.054-0.083-0.073-0.095l0,0c-0.04-0.024-0.087-0.078-0.127-0.102
				c-0.003-0.002-0.001-0.014-0.005-0.016c-0.039-0.023-0.08-0.055-0.119-0.079l-0.005-0.005c-0.038-0.023-0.079-0.049-0.118-0.073
				l-0.003-0.003c-0.038-0.023-0.077-0.047-0.115-0.07c-0.004-0.002-0.003-0.002-0.006-0.004c-0.038-0.023-0.077-0.046-0.115-0.069
				c-0.003-0.002-0.003-0.001-0.006-0.003c-0.02-0.012-0.038-0.023-0.058-0.035l-0.001,0c-0.019-0.011-0.037-0.022-0.057-0.034
				c-0.003-0.002-0.001-0.001-0.005-0.003c-0.019-0.012-0.037-0.023-0.057-0.034l-0.006-0.003c-0.018-0.01-0.034-0.021-0.052-0.031
				c-0.003-0.002-0.004-0.002-0.007-0.004c-0.019-0.011-0.037-0.022-0.055-0.033c-0.004-0.002-0.006,0.188-0.009,0.186
				c-0.019-0.011-0.036,0.159-0.054,0.159h-0.002c-0.019,0-0.038-0.214-0.057-0.226c-0.003-0.002-0.006-0.099-0.009-0.101
				c-0.017-0.01-0.033-0.068-0.051-0.078c-0.003-0.002-0.003-0.026-0.006-0.028c-0.018-0.011-0.036-0.033-0.053-0.043
				c-0.004-0.002-0.012-0.013-0.015-0.015c-0.016-0.009-0.031-0.021-0.047-0.031c-0.004-0.002-0.004-0.003-0.007-0.005
				c-0.018-0.01-0.035-0.021-0.053-0.031c-0.007-0.004-0.007-0.005-0.014-0.009c-0.017-0.01-0.032-0.02-0.049-0.029
				c-0.003-0.002-0.007-0.004-0.01-0.006c-0.016-0.009-0.031-0.018-0.046-0.027c-0.007-0.004-0.013-0.007-0.02-0.011
				c-0.016-0.009-0.032-0.019-0.049-0.029c-0.004-0.002-0.006-0.003-0.01-0.005c-0.014-0.008-0.028-0.017-0.042-0.025
				c-0.007-0.004-0.013-0.007-0.02-0.011c-0.016-0.009-0.032-0.019-0.048-0.028c-0.007-0.004-0.01-0.006-0.017-0.01
				c-0.012-0.007-0.024-0.015-0.037-0.022c-0.007-0.004-0.014-0.008-0.02-0.012c-0.016-0.009-0.031-0.018-0.047-0.027
				c-0.007-0.004-0.014-0.008-0.02-0.012c-0.012-0.006-0.022-0.013-0.033-0.019c-0.01-0.006-0.012-0.007-0.021-0.012
				c-0.015-0.009-0.03-0.018-0.045-0.026c-0.01-0.006-0.015-0.009-0.024-0.015c-0.01-0.005-0.019-0.01-0.027-0.016
				c-0.01-0.006-0.018-0.01-0.027-0.016c-0.014-0.008-0.028-0.016-0.042-0.024c-0.01-0.006-0.016-0.009-0.026-0.015
				c-0.008-0.004-0.016-0.009-0.023-0.014c-0.017-0.01-0.029-0.017-0.045-0.026c-0.008-0.004-0.016-0.009-0.023-0.014
				c-0.01-0.006-0.02-0.011-0.03-0.017c-0.007-0.004-0.014-0.008-0.021-0.012c-0.02-0.011-0.033-0.02-0.054-0.031
				c-0.005-0.003-0.011-0.006-0.016-0.009c-0.013-0.008-0.02-0.011-0.032-0.019c-0.006-0.003-0.011-0.006-0.017-0.009
				c-0.02-0.011-0.038-0.022-0.058-0.034c-0.004-0.002-0.009-0.005-0.013-0.007c-0.014-0.007-0.022-0.013-0.036-0.021
				c-0.002-0.001-0.004-0.002-0.006-0.003c-0.026-0.015-0.047-0.027-0.073-0.042c-0.001,0-0.002-0.001-0.003-0.001
				C313.197,135.595,312.883,135.416,312.568,135.238L312.568,135.238z M296.487,127.608l-3.296,8.414
				c2.586,0.981,5.112,2.072,7.611,3.244l3.794-8.15c-0.316-0.148-0.646-0.295-0.963-0.44l-0.013-0.003
				c-0.04-0.018-0.083-0.036-0.123-0.055l-0.009-0.004c-0.04-0.018-0.08-0.036-0.119-0.054c-0.004-0.001-0.009-0.003-0.012-0.005
				c-0.038-0.018-0.076-0.035-0.114-0.052c-0.008-0.003-0.009-0.004-0.016-0.007c-0.018-0.008-0.036-0.017-0.054-0.025l-0.007-0.003
				c-0.017-0.007-0.034-0.015-0.051-0.023c-0.008-0.003-0.011-0.005-0.018-0.008c-0.016-0.007-0.03-0.014-0.046-0.021
				c-0.007-0.003-0.014-0.006-0.021-0.009c-0.014-0.006-0.027-0.012-0.041-0.019c-0.008-0.003-0.015-0.006-0.021-0.01
				c-0.014-0.006-0.028-0.012-0.042-0.019c-0.007-0.003-0.02-0.009-0.026-0.012c-0.013-0.006-0.024-0.011-0.037-0.017
				c-0.007-0.003-0.018-0.008-0.024-0.011c-0.012-0.005-0.022-0.01-0.033-0.015c-0.015-0.006-0.025-0.011-0.04-0.018
				c-0.009-0.004-0.018-0.008-0.027-0.012c-0.007-0.003-0.021-0.01-0.029-0.013c-0.008-0.004-0.017-0.008-0.025-0.011
				c-0.018-0.008-0.032-0.015-0.05-0.023c-0.008-0.003-0.015-0.006-0.021-0.009c-0.011-0.005-0.022-0.01-0.033-0.015
				c-0.005-0.002-0.011-0.005-0.017-0.007c-0.021-0.009-0.039-0.018-0.061-0.027c-0.005-0.003-0.011-0.005-0.017-0.008
				c-0.011-0.005-0.022-0.01-0.033-0.015c-0.007-0.003-0.013-0.006-0.019-0.008c-0.021-0.01-0.037-0.017-0.059-0.026
				c-0.006-0.002-0.012-0.005-0.018-0.007c-0.015-0.006-0.021-0.009-0.035-0.016c-0.004-0.002-0.008-0.003-0.012-0.005
				c-0.021-0.009-0.047-0.021-0.067-0.03c-0.004-0.002-0.008-0.004-0.012-0.005c-0.015-0.006-0.023-0.01-0.038-0.017
				c-0.002-0.001-0.004-0.002-0.006-0.003c-0.025-0.011-0.049-0.021-0.073-0.032c-0.004-0.001-0.008,0.008-0.011,0.006
				C302.091,130,302.081,130,302.066,130c-0.001,0-0.002,0-0.003,0c-0.028,0-0.051-0.034-0.079-0.047
				c-0.002,0-0.004-0.007-0.006-0.008c-0.042-0.019-0.079-0.038-0.121-0.056c-0.003-0.001-0.005,0.083-0.008,0.081
				c-0.042-0.019-0.082,0.03-0.124,0.03c-0.001,0-0.002,0-0.002,0c-0.043,0,0.276-0.123,0.276-0.142c0,0,0-0.044,0-0.044
				C300,129.055,298.279,128.289,296.487,127.608L296.487,127.608z M279.044,122.499l-1.91,8.795
				c2.709,0.588,5.424,1.284,8.07,2.068l2.556-8.629c-0.053-0.016-0.104-0.031-0.157-0.046c-0.004-0.001-0.009-0.002-0.013-0.004
				c-0.023-0.007-0.054-0.016-0.077-0.022c-0.002-0.001-0.005-0.001-0.007-0.002c-0.012-0.003-0.024-0.007-0.035-0.01
				c-0.008-0.002-0.016-0.004-0.023-0.007c-0.012-0.003-0.02-0.005-0.031-0.009c-0.016-0.005-0.032-0.01-0.049-0.014
				c-0.011-0.003-0.016-0.005-0.027-0.008c-0.011-0.003-0.021-0.006-0.033-0.01c-0.011-0.003-0.013-0.003-0.024-0.007
				c-0.018-0.005-0.035-0.011-0.054-0.016c-0.008-0.002-0.009-0.003-0.017-0.005c-0.015-0.004-0.03-0.008-0.045-0.013
				c-0.004-0.001-0.013-0.004-0.016-0.005c-0.021-0.006-0.041-0.012-0.061-0.017c-0.004-0.001,0,0-0.004-0.001
				c-0.02-0.006-0.04-0.011-0.06-0.017c-0.004-0.001-0.005-0.001-0.008-0.002c-0.044-0.013-0.087,0.188-0.131,0.175l0,0
				c-2.462-0.709-4.962-1.69-7.497-1.69h-0.003c-0.044,0-0.088-0.232-0.132-0.242c-0.004-0.001-0.008-0.108-0.012-0.109
				c-0.019-0.004-0.037-0.062-0.056-0.065c-0.004-0.001-0.006-0.028-0.01-0.028c-0.02-0.005-0.039-0.022-0.059-0.027
				c-0.008-0.001-0.014-0.009-0.021-0.011c-0.013-0.003-0.025-0.009-0.039-0.012C279.057,122.505,279.048,122.5,279.044,122.499
				L279.044,122.499z M261.233,119.988l-0.59,8.98c2.753,0.181,5.54,0.469,8.282,0.856l1.258-8.912
				C267.191,120.491,264.206,120.184,261.233,119.988L261.233,119.988z"/>
		</g>
		<path fill="none" stroke="#80F41C" stroke-width="18" stroke-miterlimit="10" d="M342.43,320.671
			c-27.47,30.175-69.634,45.597-112.554,36.987c-65.048-13.051-107.2-76.36-94.149-141.408
			c13.051-65.049,76.362-107.2,141.41-94.149"/>
	</g>
	<g  class = "tech">
		<g>
			<path fill="#FFFFFF" d="M155.541,194.086c-3.026,0-5.977-0.564-8.853-1.694c-2.877-1.128-5.466-2.845-7.767-5.146
				c-2.217-2.258-3.91-4.804-5.082-7.639c-1.173-2.833-1.758-5.827-1.758-8.981c0-3.196,0.585-6.21,1.758-9.045
				c1.172-2.833,2.865-5.358,5.082-7.575c2.301-2.301,4.899-4.027,7.798-5.178c2.897-1.151,5.85-1.726,8.854-1.726
				s5.944,0.575,8.821,1.726c2.876,1.15,5.465,2.876,7.767,5.178l-7.606,7.606c-1.237-1.235-2.644-2.162-4.22-2.781
				c-1.576-0.617-3.175-0.927-4.794-0.927c-1.62,0-3.207,0.31-4.762,0.927c-1.557,0.619-2.951,1.545-4.188,2.781
				c-1.193,1.236-2.109,2.621-2.748,4.155c-0.64,1.534-0.959,3.154-0.959,4.858c0,1.705,0.319,3.314,0.959,4.826
				c0.639,1.513,1.555,2.888,2.748,4.123c1.236,1.237,2.631,2.164,4.188,2.781c1.555,0.618,3.142,0.927,4.762,0.927
				c1.619,0,3.218-0.309,4.794-0.927c1.576-0.617,2.982-1.544,4.22-2.781l7.606,7.671c-2.302,2.301-4.88,4.017-7.734,5.146
				C161.571,193.522,158.609,194.086,155.541,194.086z"/>
			<path fill="#FFFFFF" d="M198.625,147.232h10.803v46.918h-10.803v-17.706h-13.552v17.706h-10.803v-46.918h10.803v18.409h13.552
				V147.232z"/>
			<path fill="#FFFFFF" d="M242.794,194.15H214.86v-46.982h10.803v36.18h17.131V194.15z"/>
			<path fill="#FFFFFF" d="M267.436,147.168c3.233,0,6.275,0.618,9.127,1.854c2.852,1.237,5.342,2.909,7.469,5.018
				c2.128,2.109,3.809,4.592,5.043,7.447c1.234,2.855,1.853,5.903,1.853,9.141c0,3.239-0.618,6.286-1.853,9.141
				c-1.234,2.855-2.915,5.337-5.043,7.447c-2.127,2.109-4.617,3.782-7.469,5.018c-2.852,1.236-5.894,1.854-9.127,1.854
				c-3.234,0-6.277-0.617-9.129-1.854c-2.852-1.236-5.331-2.909-7.438-5.018s-3.776-4.591-5.011-7.447
				c-1.234-2.854-1.851-5.902-1.851-9.141c0-3.238,0.616-6.286,1.851-9.141c1.234-2.854,2.904-5.337,5.011-7.447
				s4.586-3.781,7.438-5.018C261.158,147.786,264.201,147.168,267.436,147.168z M267.467,183.284c1.747,0,3.388-0.33,4.922-0.991
				c1.534-0.66,2.877-1.566,4.027-2.717c1.15-1.15,2.056-2.493,2.717-4.027c0.66-1.534,0.99-3.174,0.99-4.922
				c0-1.747-0.33-3.388-0.99-4.922c-0.661-1.534-1.566-2.876-2.717-4.027s-2.493-2.056-4.027-2.717
				c-1.534-0.66-3.175-0.991-4.922-0.991c-1.748,0-3.388,0.331-4.922,0.991c-1.534,0.661-2.876,1.566-4.027,2.717
				c-1.15,1.15-2.056,2.493-2.716,4.027c-0.661,1.534-0.991,3.175-0.991,4.922c0,1.748,0.33,3.388,0.991,4.922
				c0.66,1.534,1.565,2.876,2.716,4.027c1.151,1.151,2.493,2.057,4.027,2.717C264.079,182.954,265.719,183.284,267.467,183.284z"/>
			<path fill="#FFFFFF" d="M308.376,182.005c-0.555,0.086-1.108,0.15-1.662,0.192c-0.555,0.043-1.13,0.085-1.726,0.127v11.826
				h-10.803v-46.727h10.803c2.685,0.043,5.198,0.532,7.543,1.468c2.343,0.937,4.399,2.192,6.168,3.766
				c1.768,1.575,3.153,3.405,4.155,5.49c1,2.085,1.502,4.319,1.502,6.702c0,2.511-0.533,4.841-1.599,6.991s-2.557,4.011-4.474,5.585
				l10.354,16.725h-12.72L308.376,182.005z M304.988,171.458c1.15-0.042,2.247-0.245,3.292-0.607
				c1.044-0.362,1.959-0.841,2.748-1.438c0.788-0.596,1.406-1.288,1.854-2.077c0.447-0.788,0.671-1.63,0.671-2.525
				c0-0.895-0.224-1.726-0.671-2.493c-0.448-0.767-1.066-1.448-1.854-2.045c-0.789-0.596-1.704-1.076-2.748-1.438
				c-1.045-0.361-2.142-0.564-3.292-0.607V171.458z"/>
			<path fill="#FFFFFF" d="M353.601,147.168c3.233,0,6.275,0.618,9.127,1.854c2.852,1.237,5.342,2.909,7.469,5.018
				c2.128,2.109,3.809,4.592,5.043,7.447c1.234,2.855,1.853,5.903,1.853,9.141c0,3.239-0.618,6.286-1.853,9.141
				c-1.234,2.855-2.915,5.337-5.043,7.447c-2.127,2.109-4.617,3.782-7.469,5.018c-2.852,1.236-5.894,1.854-9.127,1.854
				c-3.234,0-6.277-0.617-9.129-1.854c-2.852-1.236-5.331-2.909-7.438-5.018s-3.776-4.591-5.011-7.447
				c-1.234-2.854-1.851-5.902-1.851-9.141c0-3.238,0.616-6.286,1.851-9.141c1.234-2.854,2.904-5.337,5.011-7.447
				s4.586-3.781,7.438-5.018C347.323,147.786,350.366,147.168,353.601,147.168z M353.632,183.284c1.747,0,3.388-0.33,4.922-0.991
				c1.534-0.66,2.877-1.566,4.027-2.717c1.15-1.15,2.056-2.493,2.717-4.027c0.66-1.534,0.99-3.174,0.99-4.922
				c0-1.747-0.33-3.388-0.99-4.922c-0.661-1.534-1.566-2.876-2.717-4.027s-2.493-2.056-4.027-2.717
				c-1.534-0.66-3.175-0.991-4.922-0.991c-1.748,0-3.388,0.331-4.922,0.991c-1.534,0.661-2.876,1.566-4.027,2.717
				c-1.15,1.15-2.056,2.493-2.716,4.027c-0.661,1.534-0.991,3.175-0.991,4.922c0,1.748,0.33,3.388,0.991,4.922
				c0.66,1.534,1.565,2.876,2.716,4.027c1.151,1.151,2.493,2.057,4.027,2.717C350.244,182.954,351.884,183.284,353.632,183.284z"/>
		</g>
		<g>
			<path fill="#FFFFFF" d="M154.368,205.344v24.262h-20.242v81.543h-24.263v-81.543H89.765v-24.262H154.368z"/>
			<path fill="#FFFFFF" d="M233.613,230.037h-43.355v15.936h35.172v24.262h-35.172v16.653h43.355v24.262h-67.618V205.918
				l67.618-0.144V230.037z"/>
			<path fill="#FFFFFF" d="M294.483,311.006c-6.797,0-13.423-1.268-19.884-3.804c-6.46-2.535-12.274-6.389-17.442-11.558
				c-4.978-5.071-8.782-10.789-11.413-17.155c-2.634-6.364-3.948-13.087-3.948-20.171c0-7.178,1.314-13.947,3.948-20.314
				c2.631-6.364,6.436-12.035,11.413-17.012c5.168-5.168,11.005-9.044,17.515-11.628c6.507-2.584,13.136-3.876,19.883-3.876
				c6.748,0,13.352,1.292,19.812,3.876c6.461,2.584,12.275,6.46,17.443,11.628l-17.084,17.084c-2.777-2.775-5.936-4.856-9.476-6.245
				c-3.542-1.387-7.131-2.082-10.767-2.082c-3.639,0-7.203,0.695-10.695,2.082c-3.495,1.388-6.629,3.47-9.403,6.245
				c-2.681,2.777-4.738,5.887-6.174,9.332s-2.153,7.084-2.153,10.91c0,3.829,0.718,7.443,2.153,10.84
				c1.436,3.397,3.493,6.484,6.174,9.26c2.774,2.776,5.908,4.858,9.403,6.244c3.492,1.389,7.057,2.082,10.695,2.082
				c3.636,0,7.225-0.693,10.767-2.082c3.54-1.386,6.698-3.468,9.476-6.244l17.084,17.227c-5.168,5.169-10.96,9.022-17.371,11.558
				C308.025,309.738,301.374,311.006,294.483,311.006z"/>
			<path fill="#FFFFFF" d="M394.115,205.775h24.262v105.375h-24.262v-39.767h-30.435v39.767h-24.263V205.775h24.263v41.346h30.435
				V205.775z"/>
		</g>
		<g>
			<path fill="#FFFFFF" d="M127.946,330.317v7.711h-1.406v-17.051h5.684c1.828,0,3.23,0.4,4.207,1.201s1.465,1.971,1.465,3.51
				c0,0.906-0.26,1.717-0.779,2.432s-1.256,1.236-2.209,1.564c1.055,0.266,1.814,0.74,2.279,1.424s0.697,1.541,0.697,2.572v1.605
				c0,0.531,0.063,1.008,0.188,1.43s0.332,0.766,0.621,1.031v0.281h-1.43c-0.289-0.281-0.492-0.676-0.609-1.184
				s-0.176-1.035-0.176-1.582v-1.559c0-1.047-0.338-1.873-1.014-2.479s-1.619-0.908-2.83-0.908H127.946z M127.946,329.122h4.113
				c1.539,0,2.664-0.311,3.375-0.932s1.066-1.459,1.066-2.514c0-1.125-0.354-1.99-1.061-2.596s-1.779-0.908-3.217-0.908h-4.277
				V329.122z"/>
			<path fill="#FFFFFF" d="M157.05,329.767h-7.652v7.078h8.848v1.184h-10.254v-17.063h10.195v1.195h-8.789v6.41h7.652V329.767z"/>
			<path fill="#FFFFFF" d="M179.556,338.028h-1.406l-9.691-14.602l-0.07,0.012v14.59h-1.406v-17.063h1.406l9.691,14.566l0.07-0.012
				v-14.555h1.406V338.028z"/>
			<path fill="#FFFFFF" d="M198.734,329.767h-7.652v7.078h8.848v1.184h-10.254v-17.063h10.195v1.195h-8.789v6.41h7.652V329.767z"/>
			<path fill="#FFFFFF" d="M211.643,333.13l0.527,2.754h0.07l0.598-2.754l3.563-12.164h1.418l3.574,12.164l0.574,2.766h0.07
				l0.563-2.766l3.012-12.164h1.523l-4.371,17.063h-1.336l-3.855-13.09l-0.422-1.84h-0.07l-0.398,1.84l-3.902,13.09h-1.336
				l-4.371-17.063h1.523L211.643,333.13z"/>
			<path fill="#FFFFFF" d="M248.674,330.938v7.09h-1.406v-17.063h5.883c1.789,0,3.174,0.457,4.154,1.371s1.471,2.117,1.471,3.609
				c0,1.516-0.49,2.727-1.471,3.633s-2.365,1.359-4.154,1.359H248.674z M248.674,329.743h4.477c1.406,0,2.461-0.357,3.164-1.072
				s1.055-1.615,1.055-2.701c0-1.094-0.352-2.002-1.055-2.725s-1.758-1.084-3.164-1.084h-4.477V329.743z"/>
			<path fill="#FFFFFF" d="M269.2,330.317v7.711h-1.406v-17.051h5.684c1.828,0,3.23,0.4,4.207,1.201s1.465,1.971,1.465,3.51
				c0,0.906-0.26,1.717-0.779,2.432s-1.256,1.236-2.209,1.564c1.055,0.266,1.814,0.74,2.279,1.424s0.697,1.541,0.697,2.572v1.605
				c0,0.531,0.063,1.008,0.188,1.43s0.332,0.766,0.621,1.031v0.281h-1.43c-0.289-0.281-0.492-0.676-0.609-1.184
				s-0.176-1.035-0.176-1.582v-1.559c0-1.047-0.338-1.873-1.014-2.479s-1.619-0.908-2.83-0.908H269.2z M269.2,329.122h4.113
				c1.539,0,2.664-0.311,3.375-0.932s1.066-1.459,1.066-2.514c0-1.125-0.354-1.99-1.061-2.596s-1.779-0.908-3.217-0.908H269.2
				V329.122z"/>
			<path fill="#FFFFFF" d="M301.761,330.892c0,2.203-0.604,3.984-1.811,5.344s-2.826,2.039-4.857,2.039c-2,0-3.596-0.68-4.787-2.039
				s-1.787-3.141-1.787-5.344v-2.777c0-2.195,0.594-3.977,1.781-5.344s2.781-2.051,4.781-2.051c2.031,0,3.652,0.684,4.863,2.051
				s1.816,3.148,1.816,5.344V330.892z M300.366,328.091c0-1.844-0.467-3.328-1.4-4.453s-2.229-1.688-3.885-1.688
				c-1.625,0-2.891,0.563-3.797,1.688s-1.359,2.609-1.359,4.453v2.801c0,1.859,0.455,3.352,1.365,4.477s2.178,1.688,3.803,1.688
				c1.664,0,2.959-0.561,3.885-1.682s1.389-2.615,1.389-4.482V328.091z"/>
			<path fill="#FFFFFF" d="M318.583,320.966h1.406v12.117c0,1.586-0.463,2.848-1.389,3.785s-2.123,1.406-3.592,1.406
				c-1.563,0-2.801-0.414-3.715-1.242s-1.352-2.039-1.313-3.633l0.023-0.07h1.313c0,1.281,0.314,2.229,0.943,2.842
				s1.545,0.92,2.748,0.92c1.039,0,1.895-0.361,2.566-1.084s1.008-1.697,1.008-2.924V320.966z"/>
			<path fill="#FFFFFF" d="M339.12,329.767h-7.652v7.078h8.848v1.184h-10.254v-17.063h10.195v1.195h-8.789v6.41h7.652V329.767z"/>
			<path fill="#FFFFFF" d="M360.807,332.696l0.023,0.07c0.031,1.672-0.516,3.008-1.641,4.008s-2.602,1.5-4.43,1.5
				c-1.898,0-3.43-0.686-4.594-2.057s-1.746-3.146-1.746-5.326v-2.777c0-2.172,0.582-3.947,1.746-5.326s2.695-2.068,4.594-2.068
				c1.852,0,3.334,0.488,4.447,1.465s1.654,2.32,1.623,4.031l-0.023,0.07h-1.313c0-1.375-0.42-2.447-1.26-3.217
				s-1.998-1.154-3.475-1.154c-1.492,0-2.689,0.578-3.592,1.734s-1.354,2.637-1.354,4.441v2.801c0,1.828,0.451,3.318,1.354,4.471
				s2.1,1.729,3.592,1.729c1.477,0,2.635-0.375,3.475-1.125s1.26-1.84,1.26-3.27H360.807z"/>
			<path fill="#FFFFFF" d="M381.461,322.161h-5.813v15.867h-1.395v-15.867h-6.012v-1.195h13.219V322.161z"/>
		</g>
	</g>
</g>
<g class = "wings">
	<linearGradient id="SVGID_1_" gradientUnits="userSpaceOnUse" x1="459.9639" y1="238.835" x2="507.9639" y2="238.835">
		<stop  offset="0" style="stop-color:#FFFFFF"/>
		<stop  offset="1" style="stop-color:#FFFFFF;stop-opacity:0"/>
	</linearGradient>
	<polygon fill="url(#SVGID_1_)" points="459.964,119.139 459.964,358.531 507.964,386.145 507.964,91.525 	"/>
	<linearGradient id="SVGID_2_" gradientUnits="userSpaceOnUse" x1="48.2861" y1="238.8354" x2="0.2861" y2="238.8354">
		<stop  offset="0" style="stop-color:#FFFFFF"/>
		<stop  offset="1" style="stop-color:#FFFFFF;stop-opacity:0"/>
	</linearGradient>
	<polygon fill="url(#SVGID_2_)" points="48.286,358.531 48.286,119.139 0.286,91.525 0.286,386.145 	"/>
</g>
<g>
</g>
<g>
</g>
<g>
</g>
<g>
</g>
<g>
</g>
<g>
</g>
</svg>
